<svg width="348" height="23" viewBox="0 0 348 23" fill="none" xmlns="http://www.w3.org/2000/svg">
<path d="M347.061 12.5607C347.646 11.9749 347.646 11.0251 347.061 10.4393L337.515 0.893398C336.929 0.307611 335.979 0.307611 335.393 0.893398C334.808 1.47919 334.808 2.42893 335.393 3.01472L343.879 11.5L335.393 19.9853C334.808 20.5711 334.808 21.5208 335.393 22.1066C335.979 22.6924 336.929 22.6924 337.515 22.1066L347.061 12.5607ZM0 13H0.994253V10H0V13ZM2.98276 13H4.97126V10H2.98276V13ZM6.95977 13H8.94828V10H6.95977V13ZM10.9368 13H12.9253V10H10.9368V13ZM14.9138 13H16.9023V10H14.9138V13ZM18.8908 13H20.8793V10H18.8908V13ZM22.8678 13H24.8563V10H22.8678V13ZM26.8448 13H28.8333V10H26.8448V13ZM30.8218 13H32.8103V10H30.8218V13ZM34.7989 13H36.7874V10H34.7989V13ZM38.7759 13H40.7644V10H38.7759V13ZM42.7529 13H44.7414V10H42.7529V13ZM46.7299 13H48.7184V10H46.7299V13ZM50.7069 13H52.6954V10H50.7069V13ZM54.6839 13H56.6724V10H54.6839V13ZM58.6609 13H60.6494V10H58.6609V13ZM62.6379 13H64.6264V10H62.6379V13ZM66.615 13H68.6035V10H66.615V13ZM70.592 13H72.5805V10H70.592V13ZM74.569 13H76.5575V10H74.569V13ZM78.546 13H80.5345V10H78.546V13ZM82.523 13H84.5115V10H82.523V13ZM86.5 13H88.4885V10H86.5V13ZM90.477 13H92.4655V10H90.477V13ZM94.454 13H96.4425V10H94.454V13ZM98.431 13H100.42V10H98.431V13ZM102.408 13H104.396V10H102.408V13ZM106.385 13H108.374V10H106.385V13ZM110.362 13H112.351V10H110.362V13ZM114.339 13H116.328V10H114.339V13ZM118.316 13H120.305V10H118.316V13ZM122.293 13H124.282V10H122.293V13ZM126.27 13H128.259V10H126.27V13ZM130.247 13H132.236V10H130.247V13ZM134.224 13H136.213V10H134.224V13ZM138.201 13H140.19V10H138.201V13ZM142.178 13H144.167V10H142.178V13ZM146.155 13H148.144V10H146.155V13ZM150.132 13H152.121V10H150.132V13ZM154.109 13H156.098V10H154.109V13ZM158.086 13H160.075V10H158.086V13ZM162.063 13H164.052V10H162.063V13ZM166.04 13H168.029V10H166.04V13ZM170.017 13H172.006V10H170.017V13ZM173.994 13H175.983V10H173.994V13ZM177.971 13H179.96V10H177.971V13ZM181.948 13H183.937V10H181.948V13ZM185.925 13H187.914V10H185.925V13ZM189.902 13H191.891V10H189.902V13ZM193.879 13H195.868V10H193.879V13ZM197.856 13H199.845V10H197.856V13ZM201.833 13H203.822V10H201.833V13ZM205.81 13H207.799V10H205.81V13ZM209.787 13H211.776V10H209.787V13ZM213.764 13H215.753V10H213.764V13ZM217.741 13H219.73V10H217.741V13ZM221.719 13H223.707V10H221.719V13ZM225.696 13H227.684V10H225.696V13ZM229.673 13H231.661V10H229.673V13ZM233.65 13H235.638V10H233.65V13ZM237.627 13H239.615V10H237.627V13ZM241.604 13H243.592V10H241.604V13ZM245.581 13H247.569V10H245.581V13ZM249.558 13H251.546V10H249.558V13ZM253.535 13H255.523V10H253.535V13ZM257.512 13H259.5V10H257.512V13ZM261.489 13H263.477V10H261.489V13ZM265.466 13H267.454V10H265.466V13ZM269.443 13H271.431V10H269.443V13ZM273.42 13H275.408V10H273.42V13ZM277.397 13H279.385V10H277.397V13ZM281.374 13H283.362V10H281.374V13ZM285.351 13H287.339V10H285.351V13ZM289.328 13H291.316V10H289.328V13ZM293.305 13H295.293V10H293.305V13ZM297.282 13H299.27V10H297.282V13ZM301.259 13H303.247V10H301.259V13ZM305.236 13H307.224V10H305.236V13ZM309.213 13H311.201V10H309.213V13ZM313.19 13H315.178V10H313.19V13ZM317.167 13H319.155V10H317.167V13ZM321.144 13H323.132V10H321.144V13ZM325.121 13H327.109V10H325.121V13ZM329.098 13H331.086V10H329.098V13ZM333.074 13H335.063V10H333.074V13ZM337.051 13H339.04V10H337.051V13ZM341.028 13H343.017V10H341.028V13ZM345.005 13H346V10H345.005V13Z" fill="#F6F6F6"/>
</svg>
