<svg width="9" height="5" viewBox="0 0 9 5" fill="none" xmlns="http://www.w3.org/2000/svg">
<path d="M0.658312 4.00922L4.20449 0.126735C4.2467 0.0806521 4.29244 0.0479332 4.34169 0.0285784C4.39094 0.00922359 4.44371 -0.000300196 4.5 7.02561e-06C4.55629 7.02807e-06 4.60906 0.00968443 4.65831 0.0290392C4.70756 0.0483941 4.7533 0.0809593 4.79552 0.126735L8.35224 4.00922C8.45075 4.11675 8.5 4.25115 8.5 4.41244C8.5 4.57373 8.44723 4.71198 8.34169 4.82719C8.23615 4.9424 8.11302 5 7.9723 5C7.83157 5 7.70844 4.9424 7.6029 4.82719L4.5 1.4401L1.3971 4.82719C1.29859 4.93472 1.17715 4.98848 1.03277 4.98848C0.888391 4.98848 0.763571 4.93088 0.658312 4.81567C0.552771 4.70046 0.5 4.56605 0.5 4.41244C0.5 4.25883 0.552771 4.12443 0.658312 4.00922Z" fill="#D9D9D9"/>
</svg>
