<svg width="12" height="179" viewBox="0 0 12 179" fill="none" xmlns="http://www.w3.org/2000/svg">
<path d="M6.00001 179L11.7735 169L0.226505 169L6.00001 179ZM5 4.37114e-08L5 2.03409L7 2.03409L7 -4.37114e-08L5 4.37114e-08ZM5 6.10227L5 10.1705L7 10.1705L7 6.10227L5 6.10227ZM5 14.2386L5 18.3068L7 18.3068L7 14.2386L5 14.2386ZM5 22.375L5 26.4432L7 26.4432L7 22.375L5 22.375ZM5 30.5114L5 34.5795L7 34.5795L7 30.5114L5 30.5114ZM5 38.6477L5 42.7159L7 42.7159L7 38.6477L5 38.6477ZM5 46.7841L5 50.8523L7 50.8523L7 46.7841L5 46.7841ZM5 54.9205L5 58.9886L7 58.9886L7 54.9205L5 54.9205ZM5 63.0568L5 67.125L7 67.125L7 63.0568L5 63.0568ZM5 71.1932L5 75.2614L7 75.2614L7 71.1932L5 71.1932ZM5 79.3296L5 83.3978L7 83.3978L7 79.3296L5 79.3296ZM5 87.4659L5 91.5341L7 91.5341L7 87.4659L5 87.4659ZM5 95.6023L5 99.6705L7 99.6705L7 95.6023L5 95.6023ZM5 103.739L5 107.807L7 107.807L7 103.739L5 103.739ZM5 111.875L5.00001 115.943L7.00001 115.943L7 111.875L5 111.875ZM5.00001 120.011L5.00001 124.08L7.00001 124.08L7.00001 120.011L5.00001 120.011ZM5.00001 128.148L5.00001 132.216L7.00001 132.216L7.00001 128.148L5.00001 128.148ZM5.00001 136.284L5.00001 140.352L7.00001 140.352L7.00001 136.284L5.00001 136.284ZM5.00001 144.42L5.00001 148.489L7.00001 148.489L7.00001 144.42L5.00001 144.42ZM5.00001 152.557L5.00001 156.625L7.00001 156.625L7.00001 152.557L5.00001 152.557ZM5.00001 160.693L5.00001 164.761L7.00001 164.761L7.00001 160.693L5.00001 160.693ZM5.00001 168.83L5.00001 172.898L7.00001 172.898L7.00001 168.83L5.00001 168.83Z" fill="#453D81"/>
</svg>
