<svg width="312" height="312" viewBox="0 0 312 312" fill="none" xmlns="http://www.w3.org/2000/svg">
<path d="M34.3199 188.404L39.7175 184.91C39.7175 184.91 42.3383 170.989 40.3914 158.702C37.6583 141.367 25.8772 135.408 21.5966 137.118C17.3159 138.828 16.305 143.982 24.0364 153.966C28.5978 159.869 34.4634 172.343 34.3199 188.404Z" fill="#BA68C8"/>
<g opacity="0.3">
<path d="M34.3199 188.404L39.7175 184.91C39.7175 184.91 42.3383 170.989 40.3914 158.702C37.6583 141.367 25.8772 135.408 21.5966 137.118C17.3159 138.828 16.305 143.982 24.0364 153.966C28.5978 159.869 34.4634 172.343 34.3199 188.404Z" fill="white"/>
</g>
<path d="M36.2856 181.534H36.2294C36.1283 181.519 36.0372 181.464 35.9754 181.383C35.9137 181.301 35.8861 181.199 35.8987 181.097C38.1388 164.873 31.6243 147.139 24.2985 139.982C24.2249 139.91 24.1828 139.812 24.1817 139.709C24.1805 139.606 24.2203 139.506 24.2923 139.433C24.3643 139.359 24.4626 139.317 24.5655 139.316C24.6685 139.315 24.7677 139.355 24.8414 139.427C32.2982 146.709 38.9376 164.736 36.6662 181.197C36.6541 181.29 36.609 181.375 36.539 181.437C36.469 181.499 36.379 181.533 36.2856 181.534Z" fill="white"/>
<path d="M20.7292 197.184C19.918 197.646 17.6092 195.867 16.9852 195.437C15.8893 194.69 15.0039 193.673 14.4143 192.485C13.7564 191.13 13.5383 189.603 13.7903 188.117C13.9201 187.334 14.1036 186.56 14.3395 185.802C14.5579 185.053 14.77 184.305 14.9635 183.556C15.2259 182.831 15.3364 182.06 15.2879 181.291C15.0945 179.756 13.7279 178.682 12.4924 177.753C11.1196 176.729 9.69691 175.375 9.70315 173.528C9.80151 172.094 10.3745 170.732 11.3318 169.659C12.2179 168.536 13.2662 167.55 14.0649 166.365C14.6937 165.542 15.0218 164.529 14.9947 163.494C14.9087 162.861 14.6965 162.252 14.3707 161.703C13.7467 160.499 12.8606 159.395 12.4113 158.103C11.962 156.811 12.0244 155.201 13.0353 154.278C13.859 153.516 15.0945 153.41 16.2115 153.485C17.2614 153.614 18.2707 153.969 19.1692 154.527C22.102 156.156 23.7806 159.632 26.8943 160.886C28.1216 161.272 29.3721 161.581 30.6383 161.809C31.8863 162.14 33.1655 162.783 33.7583 163.937C34.9003 166.221 32.7787 169.035 33.5836 171.456C34.295 173.603 36.3791 174.42 37.546 176.355C38.023 177.209 38.2153 178.192 38.0951 179.163C37.9933 180.803 37.5914 182.41 36.9095 183.905C36.1397 185.457 35.2748 186.959 34.3199 188.404L20.7292 197.184Z" fill="#BA68C8"/>
<g opacity="0.65">
<path d="M20.7292 197.184C19.918 197.646 17.6092 195.867 16.9852 195.437C15.8893 194.69 15.0039 193.673 14.4143 192.485C13.7564 191.13 13.5383 189.603 13.7903 188.117C13.9201 187.334 14.1036 186.56 14.3395 185.802C14.5579 185.053 14.77 184.305 14.9635 183.556C15.2259 182.831 15.3364 182.06 15.2879 181.291C15.0945 179.756 13.7279 178.682 12.4924 177.753C11.1196 176.729 9.69691 175.375 9.70315 173.528C9.80151 172.094 10.3745 170.732 11.3318 169.659C12.2179 168.536 13.2662 167.55 14.0649 166.365C14.6937 165.542 15.0218 164.529 14.9947 163.494C14.9087 162.861 14.6965 162.252 14.3707 161.703C13.7467 160.499 12.8606 159.395 12.4113 158.103C11.962 156.811 12.0244 155.201 13.0353 154.278C13.859 153.516 15.0945 153.41 16.2115 153.485C17.2614 153.614 18.2707 153.969 19.1692 154.527C22.102 156.156 23.7806 159.632 26.8943 160.886C28.1216 161.272 29.3721 161.581 30.6383 161.809C31.8863 162.14 33.1655 162.783 33.7583 163.937C34.9003 166.221 32.7787 169.035 33.5836 171.456C34.295 173.603 36.3791 174.42 37.546 176.355C38.023 177.209 38.2153 178.192 38.0951 179.163C37.9933 180.803 37.5914 182.41 36.9095 183.905C36.1397 185.457 35.2748 186.959 34.3199 188.404L20.7292 197.184Z" fill="white"/>
</g>
<path d="M28.5666 192.591C28.5185 192.59 28.4712 192.579 28.4275 192.559C28.3838 192.538 28.3445 192.51 28.312 192.474C28.2794 192.439 28.2543 192.397 28.238 192.352C28.2217 192.307 28.2147 192.259 28.2172 192.211C28.8412 177.709 21.9772 161.691 16.9852 157.042C16.9244 156.974 16.8914 156.885 16.8925 156.793C16.8936 156.702 16.9287 156.614 16.9911 156.547C17.0534 156.48 17.1385 156.439 17.2297 156.431C17.3209 156.423 17.4117 156.45 17.4844 156.505C22.5513 161.254 29.5276 177.534 28.9161 192.242C28.9115 192.333 28.8732 192.419 28.8087 192.484C28.7441 192.549 28.6578 192.587 28.5666 192.591Z" fill="white"/>
<path d="M26.2079 174.864H26.1019C22.6733 173.915 19.1522 173.339 15.5999 173.148C15.5518 173.146 15.5046 173.135 15.4608 173.115C15.4171 173.095 15.3778 173.066 15.3453 173.031C15.3128 172.995 15.2876 172.954 15.2713 172.908C15.2551 172.863 15.248 172.815 15.2505 172.767C15.2512 172.719 15.2618 172.671 15.2816 172.627C15.3014 172.583 15.33 172.543 15.3656 172.51C15.4012 172.478 15.4431 172.453 15.4888 172.437C15.5345 172.421 15.5829 172.414 15.6311 172.418C19.2543 172.606 22.8465 173.186 26.3452 174.146C26.4368 174.178 26.5126 174.243 26.5568 174.329C26.601 174.415 26.6102 174.515 26.5823 174.608C26.5574 174.686 26.507 174.754 26.4392 174.8C26.3713 174.847 26.2899 174.869 26.2079 174.864Z" fill="white"/>
<path d="M158.296 302.652C237.901 302.652 302.434 265.395 302.434 219.436C302.434 173.477 237.901 136.219 158.296 136.219C78.6912 136.219 14.1586 173.477 14.1586 219.436C14.1586 265.395 78.6912 302.652 158.296 302.652Z" fill="#FAFAFA"/>
<path d="M81.6941 183.961C112.226 166.34 161.722 166.34 192.248 183.961C218.125 198.9 222.057 221.707 204.067 239.048L271.24 277.337C275.334 279.702 275.334 283.533 271.24 285.898L265.2 289.386C261.107 291.751 254.592 291.564 250.623 288.974L191.967 247.953C161.391 265.425 112.145 265.356 81.719 247.79C51.168 230.162 51.168 201.589 81.6941 183.961Z" fill="#E6E6E6"/>
<path d="M94.068 29.0161L88.7765 32.0737C88.8033 31.8416 88.8179 31.6083 88.8202 31.3748V29.8397C88.8202 27.1066 86.9045 26.0021 84.5396 27.3437C83.5205 27.9656 82.6494 28.8026 81.9874 29.7961C81.5943 26.3641 78.9048 25.0849 75.6288 26.9693C72.0908 29.0161 69.2266 33.9831 69.2266 38.0703V40.3604C69.202 41.2783 69.3877 42.1897 69.7695 43.0248L65.4015 45.5645C64.7054 46.0161 64.1268 46.6267 63.7134 47.3461C63.3 48.0655 63.0637 48.8729 63.024 49.7017C63.024 51.218 64.0848 51.8295 65.4015 51.0745L94.1055 34.501C94.7983 34.0519 95.3748 33.4452 95.7881 32.7305C96.2013 32.0157 96.4394 31.2133 96.4829 30.3889C96.4455 28.8725 95.3847 28.261 94.068 29.0161Z" fill="#EBEBEB"/>
<path d="M24.2736 42.7815L27.2563 40.479V33.902C27.2563 28.6854 31.4184 22.6326 35.9299 20.0305C40.4477 17.4222 44.1106 19.5376 44.1106 24.748V25.7027C45.0628 24.1601 46.3619 22.861 47.9045 21.9088C51.1555 20.0368 53.7888 21.5531 53.7888 25.3033V25.7401L57.9509 23.3377C60.0912 22.0897 61.8259 23.1006 61.8259 25.5716C61.7533 26.9166 61.3645 28.2255 60.6912 29.3921C60.018 30.5587 59.0791 31.5501 57.9509 32.2859L24.2736 51.7297C22.1333 52.9777 20.3986 51.9606 20.3986 49.4895C20.4712 48.1454 20.86 46.8374 21.5333 45.6718C22.2066 44.5062 23.1455 43.516 24.2736 42.7815Z" fill="#EBEBEB"/>
<path d="M68.5339 195.43V214.419C68.5339 224.727 75.348 235.011 88.9699 242.904C116.214 258.635 160.393 258.635 187.637 242.904C201.259 235.036 208.073 224.727 208.073 214.419V195.43C208.073 185.122 201.259 174.838 187.637 166.951C160.393 151.22 116.214 151.22 88.9699 166.951C75.348 174.814 68.5339 185.122 68.5339 195.43ZM201.321 195.43C201.321 203.68 195.262 211.717 184.261 218.069C172.093 225.095 155.775 228.964 138.303 228.964C120.831 228.964 104.514 225.095 92.3458 218.069C81.3447 211.717 75.2856 203.68 75.2856 195.43C75.2856 187.181 81.3447 179.144 92.3458 172.792C104.514 165.766 120.831 161.897 138.303 161.897C155.775 161.897 172.099 165.766 184.261 172.792C195.268 179.144 201.321 187.2 201.321 195.43Z" fill="#BA68C8"/>
<path opacity="0.2" d="M68.5339 195.43V214.419C68.5339 224.727 75.348 235.011 88.9699 242.904C116.214 258.635 160.393 258.635 187.637 242.904C201.259 235.036 208.073 224.727 208.073 214.419V195.43C208.073 185.122 201.259 174.838 187.637 166.951C160.393 151.22 116.214 151.22 88.9699 166.951C75.348 174.814 68.5339 185.122 68.5339 195.43ZM201.321 195.43C201.321 203.68 195.262 211.717 184.261 218.069C172.093 225.095 155.775 228.964 138.303 228.964C120.831 228.964 104.514 225.095 92.3458 218.069C81.3447 211.717 75.2856 203.68 75.2856 195.43C75.2856 187.181 81.3447 179.144 92.3458 172.792C104.514 165.766 120.831 161.897 138.303 161.897C155.775 161.897 172.099 165.766 184.261 172.792C195.268 179.144 201.321 187.2 201.321 195.43Z" fill="white"/>
<path opacity="0.6" d="M208.004 216.191C206.918 222.724 204.042 227.641 192.454 236.683C176.074 249.475 134.597 254.698 110.523 246.755C87.8155 239.267 80.5709 224.609 80.5709 214.556L80.6333 208.647C77.1264 204.472 75.2794 199.986 75.2794 195.431C75.2794 190.763 77.22 186.164 80.8954 181.902L80.9765 173.578H79.6848C72.253 180.211 68.5339 187.818 68.5339 195.418V214.406C68.5339 224.715 75.348 234.998 88.9699 242.892C116.214 258.623 160.393 258.623 187.637 242.892C200.479 235.491 207.268 225.888 208.004 216.191Z" fill="#BA68C8"/>
<path d="M187.643 166.951C160.393 151.22 116.22 151.22 88.9764 166.951C61.7325 182.682 61.7263 208.185 88.9764 223.916C116.226 239.647 160.393 239.647 187.643 223.916C214.893 208.185 214.887 182.682 187.643 166.951ZM184.267 218.069C172.099 225.095 155.776 228.964 138.31 228.964C120.844 228.964 104.52 225.095 92.346 218.069C81.3448 211.717 75.2858 203.68 75.2858 195.43C75.2858 187.181 81.3448 179.144 92.346 172.792C104.514 165.766 120.838 161.897 138.31 161.897C155.782 161.897 172.099 165.766 184.267 172.792C195.269 179.144 201.328 187.187 201.328 195.43C201.328 203.674 195.269 211.717 184.267 218.069Z" fill="#BA68C8"/>
<path opacity="0.5" d="M187.643 166.951C160.393 151.22 116.22 151.22 88.9764 166.951C61.7325 182.682 61.7263 208.185 88.9764 223.916C116.226 239.647 160.393 239.647 187.643 223.916C214.893 208.185 214.887 182.682 187.643 166.951ZM184.267 218.069C172.099 225.095 155.776 228.964 138.31 228.964C120.844 228.964 104.52 225.095 92.346 218.069C81.3448 211.717 75.2858 203.68 75.2858 195.43C75.2858 187.181 81.3448 179.144 92.346 172.792C104.514 165.766 120.838 161.897 138.31 161.897C155.782 161.897 172.099 165.766 184.267 172.792C195.269 179.144 201.328 187.187 201.328 195.43C201.328 203.674 195.269 211.717 184.267 218.069Z" fill="white"/>
<path d="M201.334 195.43C201.293 198.784 200.352 202.064 198.607 204.928C195.842 200.142 190.969 195.649 184.255 191.786C172.099 184.754 155.769 180.885 138.297 180.885C120.825 180.885 104.508 184.754 92.3458 191.786C85.6378 195.649 80.7706 200.142 77.9938 204.928C76.2629 202.059 75.328 198.781 75.2856 195.43C75.2856 187.187 81.3447 179.144 92.352 172.786C104.514 165.772 120.838 161.897 138.303 161.897C155.769 161.897 172.105 165.772 184.261 172.786C195.275 179.144 201.334 187.2 201.334 195.43Z" fill="#BA68C8"/>
<path opacity="0.3" d="M201.334 195.43C201.293 198.784 200.352 202.064 198.607 204.928C195.842 200.142 190.969 195.649 184.255 191.786C172.099 184.754 155.769 180.885 138.297 180.885C120.825 180.885 104.508 184.754 92.3458 191.786C85.6378 195.649 80.7706 200.142 77.9938 204.928C76.2629 202.059 75.328 198.781 75.2856 195.43C75.2856 187.187 81.3447 179.144 92.352 172.786C104.514 165.772 120.838 161.897 138.303 161.897C155.769 161.897 172.105 165.772 184.261 172.786C195.275 179.144 201.334 187.2 201.334 195.43Z" fill="white"/>
<path opacity="0.6" d="M92.352 172.785C81.3447 179.144 75.2856 187.187 75.2856 195.43C75.3299 198.781 76.2669 202.06 78 204.928C80.7831 200.142 85.6503 195.649 92.352 191.786C95.186 190.165 98.1302 188.745 101.163 187.537C98.5047 188.566 90.3428 191.193 93.3192 183.412C96.8573 174.171 114.123 164.162 126.809 162.502C113.761 163.794 101.799 167.338 92.352 172.785Z" fill="#BA68C8"/>
<path opacity="0.4" d="M184.267 181.39C172.099 174.364 155.775 170.495 138.31 170.495C120.844 170.495 104.514 174.364 92.3457 181.39C83.2728 186.632 77.5694 193.022 75.8472 199.73C77.5694 206.438 83.2728 212.834 92.3457 218.069C104.52 225.095 120.838 228.964 138.31 228.964C155.782 228.964 172.099 225.095 184.267 218.069C193.346 212.828 199.05 206.438 200.766 199.73C199.056 193.022 193.346 186.632 184.267 181.39Z" fill="white"/>
<path d="M87.6844 204.085C91.5844 207.143 96.0086 209.077 100.52 210.612C105.044 212.11 109.678 213.254 114.379 214.032C123.774 215.557 133.302 216.101 142.809 215.654C147.557 215.442 152.312 214.999 157.036 214.363C161.745 213.73 166.41 212.811 171.007 211.611C175.582 210.466 180.007 208.791 184.192 206.619C185.226 206.068 186.226 205.458 187.187 204.79C188.153 204.131 189.069 203.401 189.927 202.606C190.792 201.808 191.564 200.914 192.229 199.942C192.917 198.944 193.442 197.842 193.783 196.678C193.804 197.954 193.592 199.223 193.159 200.422C192.701 201.629 192.102 202.776 191.375 203.842C190.655 204.915 189.836 205.918 188.928 206.837C188.03 207.76 187.073 208.625 186.064 209.427C181.998 212.526 177.491 215 172.692 216.765C167.961 218.548 163.081 219.907 158.109 220.827C153.164 221.763 148.16 222.357 143.133 222.606C133.043 223.133 122.934 222.057 113.181 219.417C108.302 218.08 103.59 216.196 99.1348 213.801C96.916 212.585 94.8073 211.177 92.8324 209.595C92.3395 209.202 91.8777 208.772 91.4035 208.347C90.9292 207.923 90.48 207.492 90.0494 207.037C89.1803 206.121 88.3892 205.133 87.6844 204.085Z" fill="white"/>
<path d="M185.565 236.003C185.649 234.306 186.132 232.653 186.976 231.178C187.82 229.704 189 228.449 190.42 227.517C191.755 226.737 192.972 226.656 193.858 227.155L209.408 236.047C210.288 236.552 210.837 237.644 210.843 239.167C210.758 240.863 210.274 242.516 209.431 243.99C208.587 245.465 207.408 246.72 205.989 247.653C204.641 248.439 203.418 248.521 202.532 248.009L186.988 239.123C186.127 238.661 185.571 237.569 185.565 236.003Z" fill="#37474F"/>
<path d="M187.019 239.167C186.127 238.661 185.571 237.569 185.565 236.003C185.587 234.74 185.87 233.495 186.395 232.346L208.741 245.151C208.013 246.173 207.088 247.039 206.02 247.697C204.672 248.483 203.449 248.564 202.563 248.053L187.019 239.167Z" fill="#263238"/>
<path d="M262.355 261.337L212.871 236.122L212.809 236.084C211.661 235.46 210.101 235.572 208.385 236.571C204.878 238.618 202.051 243.56 202.07 247.616C202.07 249.65 202.8 251.073 203.942 251.734L250.449 281.686C251.787 282.533 253.282 283.102 254.844 283.359C256.407 283.615 258.005 283.555 259.544 283.18C261.083 282.806 262.531 282.125 263.801 281.179C265.071 280.233 266.137 279.041 266.937 277.674C267.736 276.307 268.252 274.793 268.454 273.223C268.655 271.652 268.539 270.057 268.11 268.532C267.682 267.007 266.951 265.585 265.961 264.348C264.971 263.112 263.743 262.088 262.348 261.337H262.355Z" fill="#455A64"/>
<path d="M203.948 251.747L250.455 281.699C252.184 282.784 254.165 283.401 256.205 283.49C258.244 283.58 260.272 283.137 262.089 282.207C263.906 281.276 265.45 279.889 266.57 278.182C267.689 276.475 268.346 274.507 268.476 272.47C267.584 276.345 261.181 279.639 253.244 275.203C245.307 270.766 215.904 252.177 202.544 244.483C202.23 245.494 202.066 246.545 202.057 247.603C202.064 249.662 202.8 251.085 203.948 251.747Z" fill="#37474F"/>
<path d="M203.948 251.747C202.788 251.085 202.076 249.662 202.076 247.628C202.076 243.572 204.884 238.63 208.391 236.583C210.107 235.585 211.667 235.479 212.815 236.097L217.183 238.318C216.004 237.694 214.413 237.794 212.647 238.817C209.052 240.914 206.151 245.987 206.17 250.149C206.17 252.233 206.887 253.725 208.073 254.399" fill="#BA68C8"/>
<path opacity="0.2" d="M208.067 254.399C206.881 253.725 206.195 252.233 206.163 250.149C206.17 249.046 206.34 247.951 206.669 246.898C205.178 246.012 203.786 245.201 202.544 244.483C202.387 245.005 202.264 245.536 202.176 246.074C202.139 246.336 202.107 246.599 202.082 246.861C202.082 247.123 202.051 247.379 202.082 247.628C202.082 249.662 202.813 251.085 203.954 251.747L208.067 254.399Z" fill="black"/>
<path d="M85.619 280.65L48.179 261.924L33.2654 268.526L85.619 280.65Z" fill="#BA68C8"/>
<g opacity="0.15">
<path d="M85.619 280.65L48.179 261.924L33.2654 268.526L85.619 280.65Z" fill="white"/>
</g>
<path d="M85.619 280.65L52.6406 258.604L58.5437 250.118L85.619 280.65Z" fill="#BA68C8"/>
<g opacity="0.15">
<path d="M85.619 280.65L52.6406 258.604L58.5437 250.118L85.619 280.65Z" fill="white"/>
</g>
<path d="M52.6406 258.604L53.2584 264.464L85.619 280.65L52.6406 258.604Z" fill="#BA68C8"/>
<g opacity="0.2">
<path d="M52.6406 258.604L53.2584 264.464L85.619 280.65L52.6406 258.604Z" fill="black"/>
</g>
<path d="M47.2991 257.481C47.3898 257.479 47.4764 257.443 47.5425 257.381C47.6189 257.306 47.6649 257.205 47.6718 257.098C47.6787 256.991 47.646 256.885 47.5799 256.801L46.8623 255.84C46.8332 255.799 46.7958 255.766 46.7526 255.741C46.7093 255.716 46.6612 255.701 46.6116 255.696C46.5619 255.691 46.5118 255.697 46.4647 255.713C46.4175 255.73 46.3744 255.756 46.3382 255.79C46.262 255.865 46.2157 255.965 46.2077 256.072C46.1996 256.179 46.2305 256.285 46.2945 256.37C46.5316 256.689 46.775 256.994 47.0183 257.313C47.0489 257.36 47.0902 257.401 47.139 257.43C47.1877 257.459 47.2425 257.477 47.2991 257.481Z" fill="#455A64"/>
<path d="M44.0107 253.226C43.5656 252.577 43.135 251.921 42.719 251.26C42.6628 251.169 42.6412 251.061 42.6584 250.955C42.6756 250.85 42.7304 250.754 42.8126 250.686C42.8515 250.655 42.8965 250.633 42.9446 250.621C42.9927 250.61 43.0428 250.609 43.0914 250.618C43.1401 250.628 43.186 250.647 43.2262 250.676C43.2664 250.705 43.2999 250.743 43.3243 250.786C43.7424 251.441 44.1667 252.09 44.5723 252.733C44.6334 252.82 44.6596 252.928 44.6458 253.034C44.6319 253.14 44.579 253.237 44.4974 253.307C44.4369 253.359 44.3593 253.388 44.279 253.388C44.2251 253.382 44.1731 253.365 44.1267 253.337C44.0804 253.309 44.0407 253.271 44.0107 253.226ZM40.7098 247.865C40.3291 247.173 39.9547 246.468 39.599 245.762C39.5502 245.668 39.5378 245.558 39.5642 245.454C39.5907 245.351 39.6541 245.261 39.7426 245.201C39.7855 245.174 39.8337 245.158 39.8837 245.152C39.9338 245.145 39.9846 245.15 40.0326 245.166C40.0806 245.181 40.1247 245.207 40.1619 245.241C40.1991 245.275 40.2285 245.317 40.248 245.363C40.5974 246.056 40.9656 246.748 41.34 247.435C41.3931 247.528 41.4104 247.637 41.3886 247.741C41.3667 247.846 41.3073 247.939 41.2214 248.003C41.1632 248.038 41.0963 248.058 41.028 248.059C40.9625 248.058 40.8986 248.039 40.8426 248.005C40.7867 247.971 40.7408 247.923 40.7098 247.865ZM37.9267 242.15C37.6147 241.407 37.3027 240.658 37.0406 239.916C37.0023 239.817 37.0015 239.708 37.0383 239.609C37.0752 239.51 37.147 239.428 37.2403 239.379C37.2868 239.359 37.3369 239.349 37.3873 239.35C37.4378 239.351 37.4876 239.362 37.5334 239.383C37.5793 239.405 37.6202 239.435 37.6535 239.473C37.6869 239.511 37.7119 239.555 37.727 239.604C37.9954 240.334 38.2886 241.07 38.6006 241.8C38.6426 241.898 38.6473 242.008 38.614 242.109C38.5807 242.21 38.5116 242.295 38.4197 242.349C38.3712 242.373 38.3178 242.386 38.2637 242.387C38.1905 242.384 38.1195 242.361 38.0596 242.319C37.9998 242.276 37.9535 242.218 37.9267 242.15ZM35.7677 236.109C35.543 235.329 35.3309 234.537 35.1437 233.769C35.1139 233.667 35.1245 233.558 35.1733 233.464C35.2221 233.37 35.3054 233.298 35.4058 233.264C35.4546 233.251 35.5055 233.248 35.5555 233.256C35.6054 233.264 35.6532 233.281 35.6959 233.308C35.7386 233.335 35.7754 233.371 35.8038 233.412C35.8323 233.454 35.8518 233.501 35.8613 233.551C36.0422 234.312 36.2482 235.086 36.4853 235.853C36.517 235.954 36.5104 236.062 36.4665 236.158C36.4227 236.254 36.3449 236.33 36.2482 236.371H36.1358C36.0545 236.373 35.9749 236.348 35.9087 236.301C35.8424 236.254 35.793 236.186 35.7677 236.109ZM34.32 229.801C34.1952 229.008 34.0829 228.197 33.9893 227.392C33.971 227.289 33.9942 227.182 34.0537 227.096C34.1133 227.009 34.2044 226.95 34.3075 226.93C34.4098 226.923 34.5108 226.957 34.5889 227.023C34.667 227.089 34.7161 227.184 34.7256 227.286C34.813 228.078 34.9253 228.877 35.0501 229.657C35.0711 229.759 35.0524 229.864 34.9979 229.953C34.9433 230.041 34.857 230.105 34.7568 230.131H34.6882C34.5982 230.127 34.5125 230.091 34.4455 230.031C34.3785 229.971 34.3342 229.89 34.32 229.801ZM33.696 223.336C33.696 222.712 33.6586 222.088 33.6586 221.42V220.896C33.656 220.845 33.6636 220.794 33.6807 220.747C33.6979 220.699 33.7243 220.655 33.7585 220.617C33.7927 220.579 33.834 220.549 33.88 220.527C33.926 220.505 33.9759 220.493 34.0267 220.49C34.1299 220.498 34.2258 220.547 34.2936 220.625C34.3614 220.703 34.3955 220.805 34.3886 220.909V221.42C34.3886 222.044 34.3886 222.668 34.3886 223.292C34.3974 223.396 34.365 223.5 34.2986 223.58C34.2321 223.661 34.1368 223.712 34.033 223.723C33.9392 223.711 33.8532 223.665 33.7911 223.593C33.729 223.522 33.6952 223.43 33.696 223.336ZM34.189 217.289C34.0868 217.271 33.9956 217.214 33.9341 217.131C33.8726 217.047 33.8454 216.943 33.8582 216.84C33.9269 216.035 34.0142 215.218 34.1141 214.413C34.1179 214.362 34.1321 214.312 34.1558 214.267C34.1795 214.221 34.2122 214.182 34.252 214.149C34.2918 214.117 34.3377 214.094 34.3869 214.08C34.4362 214.066 34.4877 214.063 34.5384 214.07C34.6403 214.091 34.73 214.151 34.7883 214.237C34.8465 214.323 34.8688 214.429 34.8504 214.531C34.7506 215.324 34.6632 216.129 34.5946 216.915C34.5901 217.012 34.5501 217.104 34.4821 217.173C34.4142 217.242 34.3231 217.283 34.2264 217.289H34.189ZM35.0626 210.912C34.9626 210.88 34.8786 210.812 34.8276 210.72C34.7766 210.628 34.7624 210.521 34.788 210.419C34.9502 209.627 35.1374 208.834 35.3434 208.054C35.3527 208.005 35.3723 207.958 35.4008 207.916C35.4293 207.875 35.4662 207.84 35.5091 207.813C35.552 207.787 35.5999 207.77 35.6498 207.763C35.6997 207.756 35.7505 207.759 35.7989 207.773C35.8977 207.811 35.9787 207.885 36.026 207.98C36.0733 208.074 36.0836 208.183 36.0547 208.285C35.855 209.046 35.6678 209.833 35.5056 210.606C35.4926 210.692 35.45 210.771 35.385 210.829C35.3201 210.888 35.237 210.921 35.1499 210.925L35.0626 210.912ZM36.7474 204.741C36.6524 204.695 36.5784 204.614 36.5403 204.516C36.5021 204.418 36.5025 204.308 36.5414 204.21C36.8098 203.462 37.1093 202.706 37.4213 201.97C37.4389 201.923 37.466 201.881 37.5009 201.845C37.5358 201.809 37.5777 201.781 37.624 201.762C37.6704 201.744 37.72 201.735 37.77 201.736C37.8199 201.737 37.869 201.749 37.9142 201.77C38.0052 201.825 38.0734 201.911 38.1066 202.011C38.1398 202.112 38.1358 202.222 38.0952 202.32C37.7832 203.043 37.4712 203.78 37.2278 204.516C37.2044 204.589 37.1588 204.653 37.0972 204.699C37.0357 204.745 36.9614 204.77 36.8846 204.772C36.8369 204.774 36.7896 204.763 36.7474 204.741ZM39.312 198.944C39.2241 198.882 39.1621 198.79 39.1379 198.685C39.1138 198.58 39.1291 198.47 39.181 198.376C39.5616 197.683 39.961 196.991 40.3666 196.323C40.3905 196.279 40.4238 196.24 40.464 196.21C40.5043 196.18 40.5506 196.159 40.5997 196.148C40.6489 196.137 40.6998 196.137 40.749 196.148C40.7981 196.159 40.8443 196.18 40.8845 196.211C40.9666 196.279 41.0218 196.374 41.0401 196.479C41.0584 196.585 41.0386 196.693 40.9843 196.785C40.5787 197.44 40.1856 198.12 39.8174 198.8C39.7877 198.859 39.7424 198.909 39.6863 198.945C39.6301 198.98 39.5654 198.999 39.4992 199C39.4327 199 39.3676 198.98 39.312 198.944ZM42.6254 193.646C42.5498 193.572 42.5037 193.473 42.4956 193.367C42.4876 193.262 42.5182 193.157 42.5818 193.072C43.0498 192.448 43.5427 191.824 44.0357 191.237C44.0679 191.199 44.108 191.169 44.1533 191.148C44.1986 191.127 44.2479 191.116 44.2978 191.116C44.3477 191.116 44.397 191.127 44.4422 191.148C44.4875 191.169 44.5276 191.199 44.5598 191.237C44.6309 191.317 44.6701 191.421 44.6701 191.528C44.6701 191.634 44.6309 191.738 44.5598 191.818C44.0731 192.398 43.5926 192.997 43.1309 193.615C43.0983 193.661 43.0553 193.698 43.0054 193.724C42.9555 193.75 42.9001 193.764 42.8438 193.765C42.7962 193.764 42.7493 193.752 42.7063 193.732C42.6633 193.712 42.6251 193.682 42.5942 193.646H42.6254ZM46.6378 188.978C46.5667 188.899 46.5275 188.795 46.5275 188.688C46.5275 188.581 46.5667 188.478 46.6378 188.398C47.1869 187.855 47.7547 187.325 48.3226 186.826C48.36 186.792 48.4042 186.767 48.4521 186.753C48.5001 186.738 48.5506 186.734 48.6003 186.74C48.6501 186.747 48.6978 186.764 48.7403 186.79C48.7828 186.817 48.8191 186.852 48.8467 186.894C48.9071 186.983 48.934 187.09 48.9226 187.196C48.9111 187.302 48.8621 187.401 48.7843 187.475C48.2227 187.961 47.6674 188.479 47.1245 189.01C47.0605 189.076 46.973 189.114 46.8811 189.116C46.828 189.115 46.7758 189.102 46.7283 189.078C46.6808 189.055 46.6392 189.02 46.6066 188.978H46.6378ZM51.2304 185.029C51.1792 184.936 51.1624 184.828 51.1829 184.724C51.2035 184.62 51.2601 184.527 51.3427 184.461C51.9667 184.011 52.5907 183.593 53.2147 183.213C53.2574 183.187 53.3051 183.171 53.3544 183.166C53.4038 183.16 53.4538 183.166 53.501 183.181C53.5483 183.196 53.5917 183.222 53.6284 183.255C53.6651 183.288 53.6943 183.329 53.7139 183.375C53.7624 183.469 53.7746 183.578 53.7481 183.68C53.7216 183.782 53.6584 183.872 53.5704 183.93C52.9464 184.305 52.3224 184.717 51.6984 185.178C51.64 185.219 51.5701 185.241 51.4987 185.241C51.435 185.233 51.3741 185.21 51.3217 185.173C51.2693 185.136 51.2272 185.086 51.1992 185.029H51.2304Z" fill="#455A64"/>
<path d="M56.7215 182.333H56.8338C57.1635 182.208 57.504 182.114 57.851 182.052C57.9534 182.03 58.0431 181.968 58.1013 181.881C58.1594 181.794 58.1815 181.687 58.163 181.584C58.1591 181.533 58.1451 181.484 58.1218 181.439C58.0986 181.394 58.0665 181.354 58.0276 181.321C57.9886 181.289 57.9435 181.264 57.895 181.249C57.8464 181.234 57.7954 181.229 57.7449 181.235C57.3583 181.307 56.9784 181.411 56.6092 181.547C56.5104 181.586 56.4302 181.661 56.385 181.757C56.3398 181.854 56.333 181.963 56.3658 182.065C56.3894 182.141 56.4365 182.208 56.5003 182.256C56.5642 182.304 56.6416 182.331 56.7215 182.333Z" fill="#455A64"/>
<path d="M231.941 38.7817L193.565 27.0193L223.13 47.3305L231.941 38.7817Z" fill="#BA68C8"/>
<path opacity="0.15" d="M231.941 38.7817L193.565 27.0193L223.13 47.3305L231.941 38.7817Z" fill="white"/>
<path d="M193.565 27.0192L234.867 33.6648L243.678 25.116L193.565 27.0192Z" fill="#BA68C8"/>
<path opacity="0.15" d="M193.565 27.0192L234.867 33.6648L243.678 25.116L193.565 27.0192Z" fill="white"/>
<path d="M234.867 33.6649L234.905 43.8735L231.941 38.7817L193.565 27.0193L234.867 33.6649Z" fill="#BA68C8"/>
<path opacity="0.2" d="M234.867 33.6649L234.905 43.8735L231.941 38.7817L193.565 27.0193L234.867 33.6649Z" fill="black"/>
<path d="M234.905 43.8733L229.002 41.6332L231.941 38.7815L234.905 43.8733Z" fill="#BA68C8"/>
<path opacity="0.2" d="M231.941 38.7815L229.002 41.6332L229.944 41.9889L231.941 38.7815Z" fill="black"/>
<path d="M242.648 36.9845C242.613 37.0111 242.582 37.0447 242.56 37.0834C242.537 37.122 242.523 37.1647 242.517 37.2091C242.505 37.3156 242.53 37.4232 242.59 37.5125C242.649 37.6018 242.739 37.6668 242.842 37.6958L243.978 38.0016C244.025 38.0166 244.076 38.021 244.125 38.0145C244.175 38.008 244.222 37.9908 244.264 37.9641C244.307 37.9373 244.342 37.9017 244.369 37.8597C244.396 37.8177 244.414 37.7703 244.421 37.7208C244.436 37.6157 244.412 37.5088 244.355 37.4195C244.298 37.3302 244.21 37.2644 244.109 37.234L242.96 36.9283C242.908 36.9129 242.852 36.9099 242.798 36.9197C242.744 36.9294 242.693 36.9516 242.648 36.9845Z" fill="#455A64"/>
<path d="M247.846 38.3758C248.589 38.6254 249.332 38.8875 250.062 39.1558C250.162 39.1937 250.245 39.2661 250.297 39.3599C250.348 39.4537 250.364 39.5628 250.342 39.6675C250.33 39.7158 250.306 39.7608 250.275 39.7993C250.243 39.8379 250.203 39.8691 250.158 39.891C250.113 39.9129 250.064 39.9249 250.014 39.9262C249.964 39.9274 249.914 39.918 249.868 39.8984C249.144 39.6301 248.408 39.3742 247.672 39.1246C247.572 39.0904 247.487 39.0209 247.434 38.929C247.382 38.8372 247.364 38.7293 247.385 38.6254C247.399 38.5454 247.444 38.4739 247.51 38.4258C247.557 38.3899 247.613 38.3666 247.672 38.3578C247.731 38.3491 247.791 38.3553 247.846 38.3758ZM253.718 40.6347C254.448 40.9592 255.166 41.2587 255.877 41.6394C255.974 41.6844 256.05 41.7635 256.091 41.8615C256.133 41.9594 256.137 42.0692 256.102 42.1698C256.083 42.2163 256.055 42.2584 256.019 42.2933C255.983 42.3282 255.94 42.355 255.893 42.3721C255.846 42.3892 255.796 42.3961 255.746 42.3924C255.696 42.3888 255.647 42.3745 255.603 42.3507C254.904 42.0075 254.193 41.6768 253.475 41.3648C253.378 41.321 253.301 41.244 253.256 41.1479C253.211 41.0517 253.203 40.9427 253.232 40.8406C253.252 40.7733 253.294 40.7143 253.35 40.6722C253.403 40.6334 253.464 40.6094 253.529 40.6028C253.594 40.5962 253.659 40.6073 253.718 40.6347ZM259.397 43.4989C260.096 43.8982 260.782 44.3163 261.456 44.7469C261.546 44.8026 261.612 44.8889 261.643 44.9899C261.674 45.0908 261.667 45.1996 261.624 45.296C261.6 45.3402 261.566 45.3786 261.525 45.4089C261.485 45.4392 261.438 45.4606 261.389 45.4718C261.339 45.483 261.288 45.4837 261.238 45.4738C261.189 45.4639 261.142 45.4438 261.1 45.4146C260.439 44.9965 259.759 44.5909 259.072 44.1666C258.98 44.115 258.909 44.0311 258.875 43.9309C258.84 43.8307 258.844 43.7214 258.885 43.6237C258.906 43.5717 258.94 43.5264 258.985 43.4926C259.047 43.4533 259.119 43.4329 259.192 43.434C259.265 43.4352 259.336 43.4577 259.397 43.4989ZM264.776 46.9995C265.431 47.48 266.074 47.9792 266.691 48.4784C266.775 48.5429 266.831 48.6366 266.848 48.7408C266.866 48.845 266.843 48.9519 266.785 49.04C266.754 49.0804 266.715 49.1139 266.671 49.1383C266.626 49.1626 266.577 49.1774 266.526 49.1815C266.476 49.1856 266.425 49.179 266.377 49.1622C266.329 49.1453 266.285 49.1186 266.248 49.0837C265.624 48.5907 265 48.104 264.376 47.6298C264.289 47.5689 264.227 47.4774 264.204 47.3733C264.181 47.2693 264.198 47.1603 264.251 47.0682C264.269 47.0355 264.295 47.0076 264.326 46.987C264.393 46.9421 264.472 46.9191 264.553 46.9214C264.634 46.9236 264.711 46.9509 264.776 46.9995ZM269.736 51.1678C270.323 51.7232 270.903 52.2973 271.465 52.8838C271.537 52.9594 271.578 53.06 271.578 53.1646C271.578 53.2693 271.537 53.3699 271.465 53.4454C271.429 53.4817 271.386 53.5104 271.339 53.53C271.292 53.5497 271.241 53.5598 271.19 53.5598C271.139 53.5598 271.089 53.5497 271.042 53.53C270.995 53.5104 270.952 53.4817 270.916 53.4454C270.367 52.8714 269.793 52.3035 269.218 51.7606C269.14 51.6909 269.092 51.5941 269.082 51.4897C269.073 51.3854 269.104 51.2815 269.169 51.199L269.218 51.1491C269.292 51.0876 269.385 51.0555 269.481 51.0589C269.577 51.0624 269.668 51.1012 269.736 51.1678ZM274.161 55.9227C274.566 56.4157 274.959 56.9149 275.352 57.4266L275.664 57.8446C275.73 57.9244 275.761 58.0267 275.752 58.1294C275.743 58.2321 275.693 58.3271 275.614 58.3938C275.572 58.423 275.524 58.4435 275.474 58.454C275.423 58.4645 275.371 58.4648 275.321 58.4549C275.27 58.445 275.222 58.4252 275.179 58.3964C275.137 58.3677 275.1 58.3307 275.072 58.2877L274.76 57.8758C274.379 57.3766 273.992 56.8837 273.593 56.397C273.521 56.3225 273.48 56.2229 273.48 56.1193C273.48 56.0157 273.521 55.9161 273.593 55.8416C273.633 55.8058 273.68 55.7787 273.731 55.762C273.782 55.7453 273.836 55.7394 273.889 55.7447C273.942 55.75 273.994 55.7663 274.041 55.7927C274.088 55.819 274.128 55.8548 274.161 55.8978V55.9227ZM277.437 61.0395C277.528 60.9912 277.635 60.9798 277.735 61.0077C277.834 61.0355 277.92 61.1005 277.973 61.1893C278.404 61.8757 278.828 62.5746 279.221 63.2797C279.248 63.3225 279.267 63.3704 279.275 63.4204C279.284 63.4705 279.282 63.5218 279.271 63.5712C279.259 63.6206 279.238 63.6672 279.208 63.7082C279.178 63.7493 279.14 63.7839 279.096 63.8101C279.001 63.8524 278.894 63.8573 278.796 63.8237C278.697 63.7902 278.615 63.7207 278.566 63.6291C278.167 62.9365 277.749 62.2438 277.318 61.5762C277.263 61.4969 277.239 61.3997 277.252 61.3039C277.264 61.208 277.313 61.1204 277.387 61.0582L277.437 61.0395ZM280.6 66.6555C280.7 66.6197 280.809 66.6229 280.907 66.6646C281.004 66.7063 281.082 66.7833 281.124 66.8802C281.468 67.6102 281.805 68.3528 282.11 69.0954C282.132 69.1411 282.144 69.1907 282.146 69.2412C282.148 69.2918 282.14 69.3422 282.122 69.3894C282.104 69.4367 282.076 69.4797 282.041 69.5161C282.006 69.5524 281.964 69.5812 281.917 69.6008C281.815 69.6297 281.706 69.6194 281.611 69.5721C281.517 69.5247 281.443 69.4437 281.405 69.345C281.106 68.6149 280.781 67.8848 280.438 67.1734C280.395 67.0961 280.381 67.006 280.398 66.9192C280.415 66.8324 280.462 66.7544 280.532 66.6992C280.548 66.6654 280.571 66.6356 280.6 66.6118V66.6555ZM283.003 72.5835C283.107 72.5639 283.214 72.5837 283.304 72.6391C283.394 72.6945 283.46 72.7815 283.489 72.883C283.726 73.6443 283.951 74.4243 284.145 75.1981C284.16 75.2461 284.164 75.2967 284.158 75.3465C284.152 75.3964 284.136 75.4445 284.11 75.4875C284.084 75.5306 284.049 75.5676 284.008 75.5962C283.966 75.6249 283.919 75.6444 283.87 75.6536C283.766 75.6672 283.66 75.6415 283.573 75.5815C283.487 75.5216 283.426 75.4316 283.402 75.3291C283.209 74.5678 282.99 73.8003 282.778 73.0578C282.752 72.986 282.748 72.9077 282.768 72.8339C282.789 72.7601 282.831 72.6944 282.89 72.6459C282.918 72.6019 282.957 72.5654 283.003 72.5398V72.5835ZM284.5 78.7299C284.607 78.7273 284.711 78.764 284.793 78.833C284.875 78.902 284.928 78.9985 284.943 79.1043C285.068 79.8843 285.168 80.6768 285.249 81.463C285.255 81.5119 285.251 81.5616 285.237 81.6087C285.222 81.6559 285.198 81.6994 285.166 81.7365C285.133 81.7737 285.093 81.8035 285.049 81.8241C285.004 81.8448 284.955 81.8557 284.906 81.8562C284.799 81.855 284.696 81.8141 284.618 81.7415C284.539 81.6688 284.491 81.5696 284.482 81.463C284.4 80.6955 284.307 79.9218 284.182 79.1542C284.171 79.0896 284.177 79.0231 284.2 78.9617C284.223 78.9003 284.262 78.8461 284.313 78.8048C284.361 78.746 284.427 78.7044 284.5 78.6862V78.7299Z" fill="#455A64"/>
<path d="M291.333 178.358C289.661 177.359 287.302 177.497 284.681 178.982L237.157 206.438C232.084 209.364 227.966 216.328 227.966 221.988C227.966 224.752 228.952 226.687 230.549 227.604L235.647 230.543C237.313 231.491 239.641 231.342 242.224 229.85L289.754 202.394C294.827 199.468 298.94 192.504 298.94 186.844C298.94 184.099 297.966 182.158 296.381 181.228C295.514 180.754 292.169 178.857 291.333 178.358Z" fill="#E0E0E0"/>
<path d="M238.006 230.88C235.135 230.88 233.351 228.609 233.351 224.958C233.351 219.411 237.401 212.553 242.38 209.683L289.91 182.227C291.134 181.468 292.533 181.038 293.972 180.979C296.843 180.979 298.627 183.25 298.627 186.901C298.627 192.454 294.578 199.306 289.598 202.182L242.068 229.638C240.845 230.398 239.445 230.826 238.006 230.88Z" fill="#FAFAFA"/>
<path d="M293.973 181.266C296.65 181.266 298.341 183.419 298.341 186.882C298.341 192.335 294.36 199.068 289.467 201.858L241.937 229.314C240.762 230.048 239.416 230.465 238.031 230.524C237.438 230.544 236.849 230.428 236.308 230.185C235.767 229.941 235.289 229.577 234.911 229.12C234.025 227.903 233.584 226.418 233.663 224.915C233.663 219.467 237.644 212.734 242.536 209.939L290.066 182.483C291.242 181.749 292.588 181.332 293.973 181.272M293.973 180.648C292.477 180.705 291.023 181.152 289.754 181.946L242.224 209.402C237.151 212.335 233.039 219.292 233.039 224.952C233.039 228.914 235.055 231.192 238.031 231.192C239.525 231.134 240.979 230.689 242.249 229.9L289.779 202.444C294.853 199.518 298.965 192.554 298.965 186.894C298.965 182.932 296.949 180.654 293.973 180.654V180.648Z" fill="#EBEBEB"/>
<path d="M249.675 215.504C249.868 215.143 249.837 214.768 249.675 214.668L248.084 213.751C248.05 213.733 248.012 213.724 247.974 213.724C247.936 213.724 247.899 213.733 247.865 213.751L246.405 214.313L245.925 213.289C245.901 213.239 245.861 213.197 245.812 213.171L244.221 212.247C244.021 212.135 243.691 212.391 243.56 212.815L242.567 216.066C242.513 216.262 242.4 216.436 242.243 216.565L240.028 218.281C239.672 218.55 239.535 219.211 239.791 219.392L241.394 220.553C241.449 220.609 241.49 220.679 241.512 220.755C241.533 220.832 241.536 220.912 241.519 220.989L241.138 224.153C241.107 224.384 241.176 224.54 241.282 224.596L242.873 225.52C242.998 225.588 243.185 225.52 243.354 225.314L245.338 222.78C245.379 222.711 245.438 222.653 245.508 222.613C245.578 222.573 245.657 222.551 245.737 222.549L247.728 222.768C248.04 222.811 248.408 222.237 248.352 221.807L247.971 219.08C247.954 218.878 247.997 218.676 248.096 218.5L249.675 215.504Z" fill="#BA68C8"/>
<path opacity="0.15" d="M249.656 214.656C249.622 214.64 249.584 214.632 249.547 214.632C249.509 214.632 249.472 214.64 249.438 214.656L247.216 215.504C247.187 215.519 247.156 215.527 247.124 215.528C247.091 215.53 247.059 215.524 247.029 215.512C246.999 215.501 246.972 215.483 246.95 215.46C246.927 215.437 246.909 215.41 246.898 215.38L246.386 214.294L247.846 213.739C247.88 213.722 247.918 213.713 247.956 213.713C247.993 213.713 248.031 213.722 248.065 213.739L249.656 214.656Z" fill="white"/>
<path opacity="0.15" d="M244.14 216.977C244.084 217.172 243.971 217.346 243.815 217.476L241.6 219.186C241.498 219.265 241.417 219.368 241.363 219.486L239.772 218.562C239.829 218.447 239.91 218.345 240.009 218.263L242.224 216.553C242.38 216.425 242.493 216.253 242.549 216.06L244.14 216.977Z" fill="white"/>
<path opacity="0.1" d="M245.806 213.164C245.606 213.033 245.269 213.289 245.132 213.726L244.14 216.977L242.549 216.054L243.541 212.803C243.672 212.378 244.003 212.122 244.202 212.235C244.246 212.235 245.594 213.046 245.8 213.158L245.806 213.164Z" fill="black"/>
<path opacity="0.25" d="M242.967 221.464L241.388 220.553L239.784 219.392C239.597 219.255 239.622 218.88 239.784 218.574L241.375 219.498C241.213 219.798 241.188 220.178 241.375 220.315L242.967 221.464Z" fill="black"/>
<path opacity="0.15" d="M242.736 225.064C242.736 225.295 242.773 225.451 242.892 225.513L241.294 224.59C241.232 224.537 241.185 224.467 241.161 224.388C241.137 224.31 241.135 224.226 241.157 224.147L241.538 220.983C241.553 220.909 241.552 220.831 241.532 220.758C241.513 220.684 241.476 220.616 241.425 220.559L243.004 221.47C243.055 221.525 243.092 221.592 243.111 221.665C243.131 221.738 243.133 221.814 243.116 221.888L242.736 225.064Z" fill="black"/>
<path d="M245.906 213.277L246.898 215.386C246.909 215.416 246.927 215.443 246.95 215.466C246.972 215.489 246.999 215.507 247.029 215.519C247.059 215.531 247.091 215.536 247.124 215.535C247.156 215.533 247.187 215.525 247.216 215.511L249.438 214.662C249.787 214.525 249.931 215.024 249.675 215.505L248.071 218.512C247.972 218.689 247.929 218.891 247.946 219.093L248.327 221.819C248.383 222.25 248.015 222.824 247.703 222.78L245.719 222.537C245.638 222.538 245.559 222.56 245.489 222.601C245.419 222.641 245.361 222.699 245.319 222.768L243.36 225.301C243.042 225.707 242.673 225.563 242.736 225.058L243.116 221.894C243.134 221.817 243.132 221.736 243.111 221.66C243.089 221.583 243.048 221.514 242.992 221.457L241.388 220.303C241.132 220.116 241.276 219.461 241.625 219.186L243.84 217.476C243.997 217.347 244.111 217.173 244.165 216.977L245.157 213.726C245.288 213.208 245.743 212.946 245.906 213.277Z" fill="#BA68C8"/>
<path opacity="0.5" d="M245.906 213.277L246.898 215.386C246.909 215.416 246.927 215.443 246.95 215.466C246.972 215.489 246.999 215.507 247.029 215.519C247.059 215.531 247.091 215.536 247.124 215.535C247.156 215.533 247.187 215.525 247.216 215.511L249.438 214.662C249.787 214.525 249.931 215.024 249.675 215.505L248.071 218.512C247.972 218.689 247.929 218.891 247.946 219.093L248.327 221.819C248.383 222.25 248.015 222.824 247.703 222.78L245.719 222.537C245.638 222.538 245.559 222.56 245.489 222.601C245.419 222.641 245.361 222.699 245.319 222.768L243.36 225.301C243.042 225.707 242.673 225.563 242.736 225.058L243.116 221.894C243.134 221.817 243.132 221.736 243.111 221.66C243.089 221.583 243.048 221.514 242.992 221.457L241.388 220.303C241.132 220.116 241.276 219.461 241.625 219.186L243.84 217.476C243.997 217.347 244.111 217.173 244.165 216.977L245.157 213.726C245.288 213.208 245.743 212.946 245.906 213.277Z" fill="white"/>
<path d="M260.832 209.077C261.025 208.715 260.988 208.347 260.832 208.247L259.247 207.33C259.212 207.313 259.174 207.303 259.135 207.303C259.096 207.303 259.057 207.313 259.022 207.33L257.568 207.892L257.082 206.868C257.062 206.817 257.024 206.775 256.976 206.75L255.384 205.826C255.185 205.714 254.854 205.97 254.723 206.394L253.687 209.664C253.63 209.859 253.518 210.032 253.363 210.163L251.147 211.873C250.792 212.147 250.654 212.809 250.904 212.99L252.514 214.15C252.569 214.207 252.609 214.277 252.63 214.354C252.65 214.43 252.651 214.51 252.632 214.587L252.258 217.751C252.227 217.982 252.289 218.138 252.395 218.194L253.968 219.086C254.093 219.155 254.274 219.086 254.448 218.88L256.433 216.347C256.474 216.278 256.532 216.22 256.602 216.18C256.672 216.139 256.751 216.117 256.832 216.116L258.816 216.359C259.128 216.397 259.496 215.829 259.44 215.398L259.066 212.672C259.046 212.47 259.089 212.267 259.191 212.091L260.832 209.077Z" fill="#BA68C8"/>
<path opacity="0.15" d="M260.794 208.241C260.76 208.226 260.723 208.218 260.685 208.218C260.648 208.218 260.61 208.226 260.576 208.241L258.336 209.09C258.306 209.104 258.275 209.112 258.242 209.114C258.209 209.115 258.177 209.11 258.146 209.098C258.116 209.086 258.088 209.069 258.065 209.046C258.042 209.023 258.023 208.995 258.011 208.965L257.506 207.879L258.96 207.324C258.995 207.307 259.033 207.298 259.072 207.298C259.111 207.298 259.149 207.307 259.184 207.324L260.794 208.241Z" fill="white"/>
<path opacity="0.15" d="M255.278 210.556C255.223 210.751 255.11 210.925 254.954 211.055L252.72 212.784C252.618 212.863 252.537 212.966 252.483 213.083L250.904 212.16C250.966 212.046 251.048 211.944 251.147 211.86L253.363 210.151C253.518 210.02 253.63 209.846 253.687 209.651L255.278 210.556Z" fill="white"/>
<path opacity="0.1" d="M256.944 206.744C256.745 206.613 256.408 206.868 256.27 207.305L255.278 210.556L253.687 209.664L254.679 206.413C254.81 205.989 255.141 205.733 255.341 205.845C255.384 205.845 256.732 206.656 256.932 206.762L256.944 206.744Z" fill="black"/>
<path opacity="0.25" d="M254.105 215.036L252.526 214.132L250.923 212.971C250.742 212.834 250.767 212.459 250.923 212.154L252.52 213.077C252.358 213.377 252.333 213.757 252.52 213.888L254.105 215.036Z" fill="black"/>
<path opacity="0.15" d="M253.849 218.637C253.818 218.874 253.887 219.03 253.999 219.092L252.408 218.169C252.302 218.107 252.239 217.957 252.27 217.726L252.651 214.562C252.666 214.488 252.663 214.411 252.643 214.337C252.624 214.264 252.588 214.196 252.539 214.138L254.118 215.043C254.169 215.098 254.205 215.165 254.225 215.238C254.245 215.311 254.246 215.387 254.23 215.461L253.849 218.637Z" fill="black"/>
<path d="M257.038 206.856L258.03 208.965C258.042 208.995 258.06 209.023 258.084 209.046C258.107 209.068 258.135 209.086 258.165 209.098C258.196 209.11 258.228 209.115 258.261 209.114C258.293 209.112 258.325 209.104 258.355 209.09L260.576 208.241C260.925 208.104 261.069 208.603 260.813 209.077L259.209 212.091C259.108 212.267 259.064 212.47 259.085 212.671L259.459 215.398C259.521 215.829 259.153 216.397 258.835 216.359L256.851 216.116C256.77 216.117 256.691 216.139 256.621 216.18C256.551 216.22 256.493 216.277 256.451 216.347L254.467 218.88C254.149 219.286 253.781 219.142 253.843 218.637L254.224 215.473C254.241 215.396 254.238 215.315 254.216 215.239C254.194 215.163 254.154 215.093 254.099 215.036L252.495 213.882C252.239 213.695 252.377 213.04 252.732 212.765L254.948 211.055C255.105 210.926 255.218 210.752 255.272 210.556L256.264 207.305C256.426 206.787 256.882 206.544 257.038 206.856Z" fill="#BA68C8"/>
<path opacity="0.5" d="M257.038 206.856L258.03 208.965C258.042 208.995 258.06 209.023 258.084 209.046C258.107 209.068 258.135 209.086 258.165 209.098C258.196 209.11 258.228 209.115 258.261 209.114C258.293 209.112 258.325 209.104 258.355 209.09L260.576 208.241C260.925 208.104 261.069 208.603 260.813 209.077L259.209 212.091C259.108 212.267 259.064 212.47 259.085 212.671L259.459 215.398C259.521 215.829 259.153 216.397 258.835 216.359L256.851 216.116C256.77 216.117 256.691 216.139 256.621 216.18C256.551 216.22 256.493 216.277 256.451 216.347L254.467 218.88C254.149 219.286 253.781 219.142 253.843 218.637L254.224 215.473C254.241 215.396 254.238 215.315 254.216 215.239C254.194 215.163 254.154 215.093 254.099 215.036L252.495 213.882C252.239 213.695 252.377 213.04 252.732 212.765L254.948 211.055C255.105 210.926 255.218 210.752 255.272 210.556L256.264 207.305C256.426 206.787 256.882 206.544 257.038 206.856Z" fill="white"/>
<path d="M271.951 202.656C272.139 202.294 272.107 201.926 271.951 201.826L270.341 200.928C270.306 200.912 270.268 200.904 270.229 200.904C270.19 200.904 270.152 200.912 270.117 200.928L268.657 201.489L268.176 200.466C268.156 200.415 268.119 200.373 268.07 200.347L266.479 199.424C266.279 199.312 265.942 199.567 265.817 199.992L264.825 203.243C264.769 203.438 264.656 203.611 264.501 203.742L262.279 205.452C261.93 205.726 261.786 206.382 262.042 206.569L263.646 207.729C263.704 207.785 263.746 207.854 263.768 207.931C263.79 208.008 263.791 208.089 263.771 208.166L263.39 211.33C263.39 211.561 263.428 211.71 263.534 211.773L265.125 212.696C265.256 212.765 265.437 212.696 265.612 212.49L267.59 209.957C267.632 209.887 267.691 209.829 267.762 209.788C267.833 209.748 267.913 209.726 267.995 209.726L269.973 209.97C270.292 210.007 270.66 209.439 270.597 209.009L270.223 206.282C270.203 206.081 270.245 205.878 270.341 205.701L271.951 202.656Z" fill="#BA68C8"/>
<path opacity="0.15" d="M271.933 201.82C271.897 201.805 271.859 201.797 271.82 201.797C271.782 201.797 271.744 201.805 271.708 201.82L269.493 202.669C269.464 202.683 269.432 202.691 269.399 202.693C269.366 202.694 269.334 202.689 269.303 202.677C269.273 202.665 269.245 202.648 269.222 202.625C269.199 202.602 269.181 202.574 269.168 202.544L268.657 201.458L270.117 200.903C270.151 200.886 270.188 200.877 270.226 200.877C270.264 200.877 270.301 200.886 270.335 200.903L271.933 201.82Z" fill="white"/>
<path opacity="0.15" d="M266.448 204.129C266.391 204.325 266.278 204.501 266.123 204.634L263.908 206.344C263.806 206.425 263.723 206.527 263.665 206.644L262.073 205.72C262.135 205.606 262.218 205.504 262.317 205.421L264.532 203.711C264.687 203.58 264.8 203.406 264.857 203.212L266.448 204.129Z" fill="white"/>
<path opacity="0.1" d="M268.083 200.304C267.883 200.173 267.54 200.429 267.409 200.859L266.448 204.129L264.857 203.212L265.849 199.961C265.98 199.536 266.311 199.281 266.51 199.393C266.554 199.393 267.896 200.204 268.101 200.31L268.083 200.304Z" fill="black"/>
<path opacity="0.25" d="M265.237 208.615L263.665 207.711L262.042 206.544C261.861 206.406 261.88 206.032 262.042 205.726L263.634 206.65C263.478 206.949 263.453 207.33 263.634 207.461L265.237 208.615Z" fill="black"/>
<path opacity="0.15" d="M264.988 212.216C264.956 212.453 265.025 212.609 265.137 212.672L263.546 211.748C263.44 211.686 263.378 211.536 263.403 211.305L263.783 208.135C263.799 208.062 263.798 207.986 263.78 207.914C263.761 207.841 263.726 207.774 263.677 207.717L265.25 208.622C265.299 208.679 265.334 208.746 265.354 208.818C265.373 208.89 265.376 208.966 265.362 209.04L264.988 212.216Z" fill="black"/>
<path d="M268.176 200.435L269.168 202.544C269.18 202.574 269.199 202.602 269.222 202.625C269.245 202.648 269.273 202.665 269.303 202.677C269.334 202.689 269.366 202.694 269.399 202.693C269.432 202.691 269.464 202.683 269.493 202.669L271.708 201.82C272.064 201.683 272.201 202.182 271.951 202.656L270.341 205.67C270.245 205.847 270.203 206.05 270.223 206.251L270.597 208.977C270.66 209.408 270.292 209.976 269.973 209.938L267.995 209.695C267.913 209.695 267.833 209.717 267.762 209.757C267.691 209.798 267.632 209.856 267.59 209.926L265.612 212.459C265.293 212.865 264.925 212.721 264.988 212.216L265.362 209.052C265.381 208.975 265.38 208.895 265.359 208.819C265.338 208.742 265.298 208.672 265.243 208.615L263.633 207.455C263.384 207.274 263.521 206.612 263.877 206.344L266.092 204.634C266.247 204.504 266.36 204.33 266.417 204.135L267.409 200.884C267.565 200.366 268.02 200.104 268.176 200.435Z" fill="#BA68C8"/>
<path opacity="0.5" d="M268.176 200.435L269.168 202.544C269.18 202.574 269.199 202.602 269.222 202.625C269.245 202.648 269.273 202.665 269.303 202.677C269.334 202.689 269.366 202.694 269.399 202.693C269.432 202.691 269.464 202.683 269.493 202.669L271.708 201.82C272.064 201.683 272.201 202.182 271.951 202.656L270.341 205.67C270.245 205.847 270.203 206.05 270.223 206.251L270.597 208.977C270.66 209.408 270.292 209.976 269.973 209.938L267.995 209.695C267.913 209.695 267.833 209.717 267.762 209.757C267.691 209.798 267.632 209.856 267.59 209.926L265.612 212.459C265.293 212.865 264.925 212.721 264.988 212.216L265.362 209.052C265.381 208.975 265.38 208.895 265.359 208.819C265.338 208.742 265.298 208.672 265.243 208.615L263.633 207.455C263.384 207.274 263.521 206.612 263.877 206.344L266.092 204.634C266.247 204.504 266.36 204.33 266.417 204.135L267.409 200.884C267.565 200.366 268.02 200.104 268.176 200.435Z" fill="white"/>
<path d="M283.084 196.235C283.277 195.873 283.246 195.505 283.084 195.405L281.499 194.482C281.463 194.466 281.425 194.458 281.386 194.458C281.348 194.458 281.309 194.466 281.274 194.482L279.814 195.044L279.333 194.02C279.312 193.968 279.275 193.925 279.227 193.895C279.028 193.789 277.68 193.003 277.636 192.978C277.436 192.866 277.099 193.122 276.968 193.546L275.976 196.797C275.922 196.991 275.811 197.165 275.658 197.296L273.437 199.006C273.087 199.281 272.944 199.936 273.199 200.123L274.803 201.284C274.86 201.338 274.901 201.407 274.923 201.482C274.945 201.558 274.947 201.638 274.928 201.714L274.547 204.878C274.547 205.109 274.585 205.265 274.691 205.327L276.282 206.251C276.407 206.319 276.594 206.251 276.763 206.045L278.747 203.511C278.788 203.442 278.847 203.384 278.917 203.344C278.986 203.304 279.066 203.282 279.146 203.28L281.131 203.524C281.449 203.561 281.817 202.993 281.755 202.563L281.374 199.836C281.359 199.634 281.402 199.433 281.499 199.256L283.084 196.235Z" fill="#BA68C8"/>
<path opacity="0.15" d="M283.065 195.399C283.031 195.384 282.993 195.375 282.956 195.375C282.918 195.375 282.881 195.384 282.847 195.399L280.625 196.248C280.596 196.262 280.565 196.27 280.533 196.272C280.5 196.273 280.468 196.268 280.438 196.256C280.408 196.244 280.381 196.226 280.359 196.203C280.336 196.18 280.318 196.153 280.307 196.123L279.795 195.037L281.255 194.482C281.289 194.463 281.326 194.454 281.365 194.454C281.403 194.454 281.44 194.463 281.474 194.482L283.065 195.399Z" fill="white"/>
<path opacity="0.15" d="M277.555 197.708C277.498 197.905 277.386 198.08 277.23 198.213L275.015 199.923C274.913 200.004 274.83 200.106 274.772 200.223L273.181 199.299C273.24 199.185 273.32 199.083 273.418 199L275.633 197.29C275.792 197.162 275.908 196.987 275.964 196.791L277.555 197.708Z" fill="white"/>
<path opacity="0.1" d="M279.221 193.902C279.021 193.77 278.678 194.026 278.547 194.457L277.555 197.708L275.964 196.791L276.956 193.54C277.081 193.115 277.418 192.859 277.617 192.972C277.661 192.972 279.003 193.783 279.209 193.889L279.221 193.902Z" fill="black"/>
<path opacity="0.25" d="M276.376 202.176L274.803 201.271L273.2 200.11C273.012 199.973 273.037 199.599 273.2 199.293L274.791 200.216C274.629 200.516 274.61 200.897 274.791 201.028L276.376 202.176Z" fill="black"/>
<path opacity="0.15" d="M276.12 205.795C276.12 206.032 276.164 206.188 276.276 206.251L274.672 205.296C274.566 205.234 274.504 205.084 274.529 204.853L274.909 201.683C274.924 201.61 274.922 201.534 274.904 201.462C274.885 201.39 274.851 201.322 274.803 201.265L276.376 202.17C276.425 202.226 276.46 202.294 276.478 202.366C276.497 202.439 276.498 202.515 276.482 202.588L276.12 205.795Z" fill="black"/>
<path d="M279.315 194.014L280.307 196.123C280.319 196.153 280.337 196.181 280.361 196.204C280.384 196.227 280.411 196.244 280.442 196.256C280.472 196.268 280.505 196.273 280.538 196.272C280.57 196.27 280.602 196.262 280.631 196.248L282.847 195.399C283.202 195.262 283.34 195.761 283.084 196.235L281.48 199.249C281.384 199.427 281.34 199.628 281.355 199.83L281.736 202.556C281.798 202.987 281.43 203.555 281.112 203.517L279.128 203.274C279.047 203.275 278.968 203.297 278.898 203.338C278.828 203.378 278.77 203.436 278.728 203.505L276.744 206.038C276.432 206.444 276.064 206.3 276.12 205.795L276.5 202.631C276.52 202.554 276.519 202.473 276.497 202.396C276.475 202.319 276.433 202.25 276.376 202.194L274.772 201.034C274.516 200.853 274.66 200.191 275.009 199.923L277.231 198.213C277.384 198.082 277.497 197.908 277.555 197.714L278.547 194.457C278.703 193.945 279.159 193.683 279.315 194.014Z" fill="#BA68C8"/>
<path opacity="0.5" d="M279.315 194.014L280.307 196.123C280.319 196.153 280.337 196.181 280.361 196.204C280.384 196.227 280.411 196.244 280.442 196.256C280.472 196.268 280.505 196.273 280.538 196.272C280.57 196.27 280.602 196.262 280.631 196.248L282.847 195.399C283.202 195.262 283.34 195.761 283.084 196.235L281.48 199.249C281.384 199.427 281.34 199.628 281.355 199.83L281.736 202.556C281.798 202.987 281.43 203.555 281.112 203.517L279.128 203.274C279.047 203.275 278.968 203.297 278.898 203.338C278.828 203.378 278.77 203.436 278.728 203.505L276.744 206.038C276.432 206.444 276.064 206.3 276.12 205.795L276.5 202.631C276.52 202.554 276.519 202.473 276.497 202.396C276.475 202.319 276.433 202.25 276.376 202.194L274.772 201.034C274.516 200.853 274.66 200.191 275.009 199.923L277.231 198.213C277.384 198.082 277.497 197.908 277.555 197.714L278.547 194.457C278.703 193.945 279.159 193.683 279.315 194.014Z" fill="white"/>
<path d="M294.222 189.814C294.416 189.452 294.384 189.084 294.222 188.978L292.631 188.061C292.597 188.045 292.559 188.037 292.522 188.037C292.484 188.037 292.447 188.045 292.412 188.061L290.952 188.623L290.472 187.599C290.446 187.55 290.41 187.507 290.366 187.474C290.16 187.368 288.812 186.582 288.775 186.557C288.569 186.445 288.238 186.694 288.107 187.125L287.115 190.376C287.061 190.572 286.947 190.746 286.79 190.875L284.544 192.579C284.188 192.853 284.051 193.508 284.307 193.696L285.91 194.856C285.967 194.911 286.008 194.979 286.03 195.055C286.052 195.131 286.054 195.21 286.035 195.287L285.667 198.432C285.667 198.663 285.704 198.819 285.811 198.881L287.402 199.805C287.527 199.873 287.714 199.805 287.882 199.599L289.867 197.065C289.908 196.996 289.966 196.938 290.036 196.898C290.106 196.858 290.185 196.836 290.266 196.834L292.25 197.078C292.562 197.115 292.93 196.547 292.874 196.117L292.494 193.39C292.476 193.188 292.519 192.986 292.618 192.81L294.222 189.814Z" fill="#BA68C8"/>
<path opacity="0.15" d="M294.203 188.978C294.169 188.961 294.132 188.952 294.094 188.952C294.056 188.952 294.019 188.961 293.985 188.978L291.764 189.827C291.735 189.841 291.703 189.849 291.671 189.851C291.639 189.852 291.607 189.847 291.577 189.835C291.547 189.823 291.52 189.805 291.497 189.782C291.474 189.76 291.457 189.732 291.445 189.702L290.934 188.616L292.394 188.055C292.427 188.037 292.465 188.028 292.503 188.028C292.541 188.028 292.578 188.037 292.612 188.055L294.203 188.978Z" fill="white"/>
<path opacity="0.15" d="M288.693 191.287C288.635 191.484 288.52 191.66 288.363 191.792L286.147 193.502C286.047 193.583 285.966 193.686 285.91 193.802L284.319 192.878C284.376 192.763 284.457 192.661 284.556 192.579L286.771 190.869C286.928 190.74 287.042 190.565 287.096 190.37L288.693 191.287Z" fill="white"/>
<path opacity="0.1" d="M290.359 187.474C290.16 187.35 289.817 187.605 289.686 188.036L288.693 191.287L287.096 190.37L288.088 187.119C288.219 186.694 288.556 186.439 288.756 186.551C288.799 186.551 290.141 187.362 290.347 187.468L290.359 187.474Z" fill="black"/>
<path opacity="0.25" d="M287.514 195.774L285.935 194.869L284.332 193.708C284.144 193.571 284.169 193.196 284.332 192.891L285.923 193.814C285.761 194.114 285.736 194.494 285.923 194.625L287.514 195.774Z" fill="black"/>
<path opacity="0.15" d="M287.258 199.374C287.258 199.611 287.296 199.767 287.414 199.823L285.792 198.9C285.686 198.838 285.623 198.688 285.648 198.451L286.029 195.287C286.044 195.213 286.042 195.137 286.023 195.065C286.003 194.992 285.967 194.925 285.917 194.869L287.495 195.774C287.545 195.83 287.58 195.897 287.599 195.97C287.617 196.043 287.618 196.119 287.601 196.192L287.258 199.374Z" fill="black"/>
<path d="M290.453 187.593L291.445 189.702C291.457 189.732 291.476 189.76 291.499 189.783C291.522 189.806 291.55 189.823 291.58 189.835C291.611 189.847 291.643 189.852 291.676 189.851C291.709 189.849 291.74 189.841 291.77 189.827L293.985 188.978C294.334 188.841 294.478 189.34 294.222 189.814L292.618 192.816C292.519 192.992 292.476 193.195 292.494 193.396L292.874 196.123C292.93 196.554 292.562 197.121 292.25 197.084L290.266 196.841C290.185 196.842 290.106 196.864 290.036 196.904C289.966 196.945 289.908 197.002 289.867 197.071L287.882 199.605C287.57 200.011 287.202 199.861 287.258 199.362L287.639 196.198C287.657 196.12 287.655 196.04 287.633 195.963C287.611 195.887 287.57 195.817 287.514 195.761L285.91 194.6C285.655 194.419 285.798 193.758 286.148 193.49L288.369 191.78C288.52 191.646 288.63 191.474 288.687 191.281L289.679 188.023C289.842 187.524 290.297 187.256 290.453 187.593Z" fill="#BA68C8"/>
<path opacity="0.5" d="M290.453 187.593L291.445 189.702C291.457 189.732 291.476 189.76 291.499 189.783C291.522 189.806 291.55 189.823 291.58 189.835C291.611 189.847 291.643 189.852 291.676 189.851C291.709 189.849 291.74 189.841 291.77 189.827L293.985 188.978C294.334 188.841 294.478 189.34 294.222 189.814L292.618 192.816C292.519 192.992 292.476 193.195 292.494 193.396L292.874 196.123C292.93 196.554 292.562 197.121 292.25 197.084L290.266 196.841C290.185 196.842 290.106 196.864 290.036 196.904C289.966 196.945 289.908 197.002 289.867 197.071L287.882 199.605C287.57 200.011 287.202 199.861 287.258 199.362L287.639 196.198C287.657 196.12 287.655 196.04 287.633 195.963C287.611 195.887 287.57 195.817 287.514 195.761L285.91 194.6C285.655 194.419 285.798 193.758 286.148 193.49L288.369 191.78C288.52 191.646 288.63 191.474 288.687 191.281L289.679 188.023C289.842 187.524 290.297 187.256 290.453 187.593Z" fill="white"/>
<path d="M298.472 35.568L293.48 37.7083L292.413 43.0311C292.382 43.1773 292.311 43.3121 292.209 43.4205C292.106 43.5289 291.975 43.6066 291.831 43.6448C291.686 43.683 291.534 43.6802 291.391 43.6369C291.248 43.5935 291.12 43.5112 291.021 43.3992L287.446 39.312L282.048 39.936C281.893 39.9594 281.735 39.937 281.593 39.8714C281.451 39.8058 281.332 39.7001 281.25 39.5672C281.167 39.4343 281.126 39.2802 281.13 39.1239C281.134 38.9676 281.184 38.8161 281.274 38.688L284.051 34.0267L281.792 29.0909C281.737 28.9584 281.719 28.8135 281.739 28.6714C281.76 28.5294 281.818 28.3955 281.908 28.2838C281.998 28.172 282.116 28.0866 282.251 28.0365C282.385 27.9864 282.531 27.9734 282.672 27.9989L287.963 29.2032L291.957 25.5279C292.067 25.4253 292.203 25.3558 292.35 25.3271C292.498 25.2985 292.65 25.312 292.79 25.3661C292.93 25.4202 293.052 25.5126 293.142 25.6328C293.232 25.753 293.286 25.8962 293.299 26.0458L293.792 31.4496L298.522 34.1079C298.661 34.1752 298.778 34.2816 298.858 34.4141C298.938 34.5466 298.977 34.6995 298.972 34.8542C298.967 35.0089 298.917 35.1587 298.828 35.2854C298.739 35.4121 298.615 35.5103 298.472 35.568Z" fill="#E0E0E0"/>
<path d="M270.959 26.3204C270.915 26.3779 270.863 26.4284 270.803 26.4701C270.698 26.5463 270.573 26.5914 270.442 26.6002C270.312 26.609 270.182 26.5813 270.067 26.52L267.29 25.0599L264.507 26.52C264.392 26.5813 264.262 26.609 264.132 26.6002C264.002 26.5914 263.877 26.5463 263.771 26.4701C263.664 26.3944 263.581 26.2893 263.532 26.1675C263.484 26.0457 263.471 25.9124 263.496 25.7837L264.027 22.6637L261.774 20.4735C261.68 20.3825 261.614 20.2669 261.583 20.1399C261.552 20.0129 261.558 19.8798 261.599 19.7559C261.638 19.6317 261.712 19.5212 261.811 19.4373C261.911 19.3533 262.032 19.2993 262.161 19.2816L265.281 18.8324L266.673 16.0119C266.73 15.8954 266.819 15.7974 266.929 15.729C267.039 15.6606 267.167 15.6245 267.297 15.625C267.426 15.626 267.553 15.6626 267.663 15.7308C267.773 15.7991 267.862 15.8963 267.921 16.0119L269.312 18.8324L272.432 19.2816C272.561 19.3005 272.682 19.355 272.782 19.4391C272.881 19.5232 272.955 19.6334 272.996 19.7574C273.036 19.8814 273.041 20.0141 273.009 20.1407C272.978 20.2672 272.912 20.3825 272.819 20.4735L270.566 22.6637L271.103 25.7837C271.127 25.9745 271.075 26.1671 270.959 26.3204ZM262.08 19.837L262.042 19.9181C262.027 19.9647 262.025 20.0148 262.037 20.0624C262.049 20.11 262.075 20.153 262.111 20.1864L264.52 22.5389L263.952 25.8586C263.944 25.9075 263.95 25.9575 263.969 26.0032C263.988 26.0489 264.019 26.0884 264.059 26.1175C264.099 26.1465 264.147 26.164 264.196 26.1678C264.245 26.1717 264.295 26.1619 264.339 26.1394L267.321 24.5732L270.298 26.1394C270.341 26.164 270.389 26.177 270.438 26.177C270.488 26.177 270.536 26.164 270.579 26.1394C270.62 26.111 270.652 26.071 270.671 26.0243C270.69 25.9777 270.695 25.9266 270.685 25.8773L270.117 22.5576L272.526 20.2052C272.56 20.1709 272.585 20.1278 272.597 20.0805C272.609 20.0333 272.608 19.9836 272.594 19.9368C272.58 19.8894 272.553 19.847 272.515 19.8149C272.477 19.7828 272.431 19.7623 272.382 19.7559L269.044 19.2692L267.521 16.224C267.501 16.1787 267.467 16.1404 267.425 16.1138C267.383 16.0872 267.334 16.0734 267.284 16.0743C267.239 16.0792 267.196 16.0956 267.159 16.1218C267.122 16.148 267.092 16.1832 267.072 16.224L265.587 19.2442L262.248 19.7309C262.181 19.7445 262.121 19.7823 262.08 19.837Z" fill="#E0E0E0"/>
<path d="M236.209 68.0159C231.51 65.2953 225.052 65.6634 217.913 69.7818C203.561 78.081 191.899 98.4047 191.899 115.184C191.899 123.627 194.856 129.536 199.618 132.3C200.722 132.924 205.04 135.42 205.04 135.42C204.838 137.319 204.182 139.142 203.127 140.734C202.073 142.326 200.651 143.641 198.981 144.568C198.707 144.724 198.875 144.993 199.118 145.13L205.714 148.942C205.803 148.995 205.904 149.026 206.007 149.03C212.503 149.03 220.022 144.662 222.119 135.589C222.905 135.214 223.698 134.809 224.503 134.341C238.855 126.048 250.517 105.718 250.517 88.9449C250.517 80.4959 247.566 74.5929 242.805 71.8098L236.209 68.0159Z" fill="#37474F"/>
<path d="M224.503 73.5882C210.151 81.8811 198.488 102.211 198.488 118.984C198.488 130.372 203.848 137.186 211.786 137.81C211.486 141.429 210.432 145.498 205.546 148.375C205.159 148.605 205.664 149.036 205.989 149.036C212.484 149.036 220.004 144.668 222.1 135.595C222.887 135.221 223.679 134.815 224.484 134.347C238.836 126.054 250.499 105.724 250.499 88.9511C250.499 72.1779 238.867 65.2952 224.503 73.5882Z" fill="#455A64"/>
<path d="M205.564 148.375C205.327 148.524 205.433 148.743 205.633 148.893L199.118 145.149C198.875 144.999 198.707 144.743 198.981 144.581C200.654 143.652 202.079 142.333 203.133 140.736C204.188 139.139 204.842 137.311 205.04 135.408L205.758 135.832L206.419 136.219C208.072 137.128 209.904 137.665 211.786 137.792C211.492 141.43 210.431 145.498 205.564 148.375Z" fill="#263238"/>
<path d="M221.757 121.611C221.065 121.118 220.715 120.232 220.715 118.953C220.73 117.62 221.082 116.313 221.738 115.153C222.334 113.993 223.242 113.023 224.359 112.351C225.42 111.74 226.292 111.667 226.974 112.133C227.654 112.595 227.997 113.468 227.997 114.747C227.977 116.104 227.619 117.433 226.955 118.616C226.374 119.787 225.474 120.771 224.359 121.455C223.323 122.048 222.456 122.104 221.757 121.611ZM220.827 87.6907L227.885 83.616L226.705 107.403L222.007 110.117L220.827 87.6907Z" fill="#FAFAFA"/>
<path opacity="0.2" d="M227.972 132.069C235.635 126.453 242.243 117.549 246.287 107.989C238.624 113.611 232.016 122.51 227.972 132.069Z" fill="black"/>
<path d="M276.969 164.58C274.31 164.611 272.332 162.752 271.091 160.412C279.053 150.621 284.438 137.579 284.438 126.173C284.438 117.717 281.474 111.777 276.7 109.031L270.117 105.237C265.418 102.523 258.966 102.897 251.834 107.01C237.482 115.309 225.819 135.633 225.819 152.412C225.819 160.855 228.771 166.764 233.532 169.541C234.643 170.165 239.017 172.698 240.096 173.328C244.801 176.068 251.272 175.706 258.423 171.575C260.338 170.46 262.156 169.187 263.858 167.769C268.688 171.594 274.579 167.425 276.912 165.429C277.224 165.166 277.262 164.58 276.969 164.58Z" fill="#E0E0E0"/>
<path d="M246.911 174.72C238.212 174.72 232.814 167.637 232.814 156.243C232.814 139.62 244.396 119.427 258.623 111.197C262.604 108.9 266.411 107.733 269.936 107.733C278.629 107.733 284.032 114.81 284.032 126.21C284.032 137.111 278.953 150.134 270.779 160.187L270.61 160.399L270.735 160.636C272.201 163.4 274.329 164.948 276.738 165.004C276.721 165.057 276.691 165.104 276.65 165.141C274.991 166.564 271.696 168.942 268.283 168.942C266.763 168.948 265.287 168.428 264.108 167.469L263.852 167.269L263.596 167.475C261.91 168.87 260.111 170.122 258.217 171.219C254.243 173.522 250.436 174.72 246.911 174.72Z" fill="#FAFAFA"/>
<path d="M269.936 107.328V108.139C278.379 108.139 283.627 115.065 283.627 126.204C283.627 137.024 278.585 149.947 270.467 159.931L270.123 160.349L270.379 160.823C271.727 163.369 273.624 164.936 275.802 165.329C274.073 166.708 271.209 168.549 268.283 168.549C266.853 168.555 265.466 168.066 264.358 167.163L263.846 166.758L263.34 167.176C261.672 168.568 259.892 169.82 258.018 170.92C254.099 173.179 250.361 174.327 246.911 174.327C238.468 174.327 233.22 167.4 233.22 156.231C233.22 139.738 244.708 119.689 258.804 111.534C262.723 109.275 266.46 108.127 269.911 108.127V107.328M269.911 107.328C266.442 107.328 262.535 108.457 258.398 110.847C244.046 119.14 232.384 139.464 232.384 156.243C232.384 168.193 238.293 175.125 246.886 175.125C250.355 175.125 254.261 173.996 258.398 171.606C260.313 170.492 262.131 169.218 263.833 167.8C265.081 168.819 266.646 169.371 268.258 169.36C271.827 169.36 275.24 166.864 276.887 165.46C277.199 165.198 277.237 164.611 276.944 164.611H276.881C274.26 164.611 272.301 162.77 271.066 160.443C279.028 150.652 284.413 137.611 284.413 126.204C284.413 114.254 278.504 107.328 269.911 107.328Z" fill="#BA68C8"/>
<path d="M257.088 144.05C257.845 142.234 258.714 140.467 259.69 138.759C260.362 137.586 260.975 136.38 261.525 135.146C261.903 134.299 262.105 133.384 262.117 132.456C262.117 131.208 261.743 130.441 260.994 130.141C260.245 129.842 259.259 130.06 258.018 130.765C256.79 131.486 255.715 132.44 254.854 133.573C253.892 134.829 253.107 136.21 252.52 137.679L247.934 136.737C248.96 134.027 250.413 131.499 252.239 129.249C254.026 127.041 256.205 125.181 258.667 123.764C261.579 122.1 263.91 121.58 265.662 122.204C267.413 122.828 268.291 124.613 268.295 127.558C268.303 128.887 268.131 130.212 267.783 131.495C267.476 132.658 267.058 133.788 266.535 134.871C266.042 135.882 265.4 137.086 264.62 138.484C263.863 139.774 263.18 141.105 262.573 142.472C262.154 143.458 261.942 144.52 261.949 145.592L256.227 148.899C256.204 147.243 256.496 145.597 257.088 144.05ZM256.464 160.106C255.771 159.613 255.422 158.727 255.422 157.441C255.437 156.109 255.789 154.801 256.445 153.641C257.041 152.483 257.946 151.513 259.06 150.839C260.127 150.215 260.994 150.153 261.681 150.621C262.367 151.089 262.704 151.963 262.704 153.242C262.683 154.596 262.325 155.923 261.662 157.104C261.08 158.277 260.178 159.262 259.06 159.944C258.055 160.543 257.194 160.592 256.495 160.106H256.464Z" fill="#455A64"/>
<path d="M125.287 115.627L96.5826 132.251L107.983 151.632C108.203 152.155 108.586 152.593 109.075 152.88C110.435 153.648 118.491 158.315 118.934 158.571C119.28 158.77 119.666 158.889 120.064 158.918C120.462 158.946 120.861 158.884 121.232 158.737C121.602 158.589 121.934 158.359 122.203 158.065C122.472 157.77 122.671 157.418 122.784 157.036L135.165 121.356L125.287 115.627Z" fill="#BA68C8"/>
<path opacity="0.2" d="M125.287 115.627L96.5826 132.251L107.983 151.632C108.203 152.155 108.586 152.593 109.075 152.88C110.435 153.648 118.491 158.315 118.934 158.571C119.28 158.77 119.666 158.889 120.064 158.918C120.462 158.946 120.861 158.884 121.232 158.737C121.602 158.589 121.934 158.359 122.203 158.065C122.472 157.77 122.671 157.418 122.784 157.036L135.165 121.356L125.287 115.627Z" fill="black"/>
<path d="M106.461 137.954L117.861 157.335C118.079 157.828 118.443 158.241 118.903 158.52C119.364 158.799 119.899 158.929 120.436 158.894C120.973 158.858 121.487 158.659 121.907 158.322C122.327 157.985 122.633 157.527 122.784 157.011L135.165 121.331L106.461 137.954Z" fill="#BA68C8"/>
<path d="M157.31 16.2239L49.0651 78.705C48.3394 79.1754 47.7351 79.8106 47.3013 80.5588C46.8676 81.307 46.6167 82.1471 46.5691 83.0106V158.134C46.6151 158.994 46.8655 159.832 47.2995 160.576C47.7336 161.32 48.3388 161.951 49.0651 162.415L57.9696 167.407C58.7439 167.796 59.5987 167.999 60.4656 167.999C61.3324 167.999 62.1872 167.796 62.9616 167.407L171.213 104.888C171.938 104.417 172.541 103.781 172.975 103.033C173.409 102.285 173.66 101.446 173.709 100.582V25.4591C173.663 24.5987 173.412 23.7617 172.978 23.0174C172.544 22.273 171.939 21.6427 171.213 21.1784L162.315 16.1864C161.536 15.8016 160.677 15.6045 159.808 15.611C158.939 15.6175 158.084 15.8274 157.31 16.2239Z" fill="#BA68C8"/>
<path opacity="0.3" d="M173.665 25.0035C173.466 23.7555 172.449 23.3062 171.207 24.0176L62.9678 86.5174C62.2303 86.9781 61.6258 87.6234 61.2144 88.3894L47.3553 80.4958C47.7713 79.7755 48.3586 79.1689 49.0651 78.7299L157.317 16.2238C158.091 15.8357 158.946 15.6335 159.813 15.6335C160.679 15.6335 161.534 15.8357 162.309 16.2238L171.207 21.2158C171.862 21.6365 172.42 22.1918 172.844 22.8449C173.268 23.498 173.548 24.2338 173.665 25.0035Z" fill="white"/>
<path d="M60.478 166.234V91.104C60.5256 90.2413 60.7765 89.4021 61.2103 88.6549C61.6441 87.9077 62.2485 87.2737 62.974 86.8046L171.213 24.336C172.58 23.5435 173.709 24.1862 173.709 25.7712V100.87C173.66 101.733 173.409 102.572 172.975 103.32C172.541 104.068 171.938 104.704 171.213 105.175L62.9615 167.669C61.5887 168.48 60.478 167.819 60.478 166.234Z" fill="#BA68C8"/>
<path opacity="0.2" d="M62.9616 167.382C62.1843 167.761 61.3306 167.959 60.4656 167.959C59.6005 167.959 58.7468 167.761 57.9696 167.382L49.0713 162.39C48.3457 161.928 47.7407 161.3 47.3065 160.558C46.8724 159.815 46.6217 158.98 46.5753 158.121V82.9918C46.6196 82.1054 46.8926 81.2455 47.3678 80.4958L61.2144 88.377C60.7579 89.111 60.5039 89.9528 60.478 90.8168V165.94C60.478 167.394 61.5014 168.23 62.9616 167.382Z" fill="black"/>
<path d="M90.8482 106.08L89.7687 105.456C89.3554 105.219 88.8876 105.095 88.4115 105.095C87.9354 105.095 87.4675 105.219 87.0543 105.456L80.4586 109.262V100.252L92.6703 93.2066C93.242 92.8693 93.7155 92.3884 94.0439 91.8115C94.3723 91.2346 94.5441 90.5819 94.5423 89.9182V84.8638C94.5441 84.2 94.3723 83.5473 94.0439 82.9704C93.7155 82.3936 93.242 81.9126 92.6703 81.5753C92.0928 81.2411 91.4374 81.0652 90.7702 81.0652C90.103 81.0652 89.4476 81.2411 88.8701 81.5753L71.9348 91.3533C70.9322 91.9315 70.0997 92.7637 69.5213 93.7661C68.9429 94.7685 68.6389 95.9056 68.6401 97.063V143.982C68.6372 144.646 68.8085 145.3 69.1369 145.878C69.4654 146.456 69.9395 146.938 70.5121 147.276C71.09 147.609 71.7452 147.784 72.4121 147.784C73.0791 147.784 73.7343 147.609 74.3122 147.276L78.5367 144.843C79.1093 144.505 79.5834 144.023 79.9118 143.445C80.2403 142.867 80.4116 142.213 80.4087 141.548V123.14L90.8045 117.137C91.2164 116.898 91.5583 116.555 91.7959 116.142C92.0335 115.729 92.1586 115.261 92.1586 114.785V108.445C92.1672 107.97 92.0505 107.502 91.8205 107.087C91.5905 106.671 91.2551 106.324 90.8482 106.08Z" fill="#E0E0E0"/>
<path opacity="0.1" d="M74.6991 147.052L74.3371 147.264C73.7592 147.596 73.1042 147.771 72.4377 147.77C71.7711 147.77 71.1163 147.594 70.5389 147.261C69.9614 146.928 69.4815 146.45 69.1472 145.873C68.8128 145.296 68.6358 144.642 68.6338 143.975V97.0568C68.6354 95.9672 68.9077 94.8951 69.4263 93.9368L73.2264 96.127C72.7057 97.0844 72.4332 98.1571 72.434 99.247V145.729C72.4351 145.994 72.5052 146.254 72.6376 146.483C72.77 146.713 72.9599 146.904 73.1886 147.037C73.4174 147.171 73.677 147.242 73.9419 147.245C74.2068 147.247 74.4678 147.181 74.6991 147.052Z" fill="black"/>
<path d="M80.4585 100.252V113.655L90.8357 107.671C90.9746 107.589 91.1326 107.546 91.2938 107.545C91.4549 107.545 91.6134 107.587 91.7529 107.667C91.8925 107.748 92.0082 107.864 92.0882 108.004C92.1682 108.144 92.2097 108.302 92.2085 108.463V114.816C92.2082 115.29 92.0835 115.755 91.847 116.166C91.6105 116.576 91.2704 116.918 90.8606 117.156L80.4585 123.159V141.56C80.4611 142.223 80.2896 142.876 79.9611 143.452C79.6325 144.028 79.1586 144.507 78.5865 144.843L74.7427 147.064C74.5119 147.198 74.2497 147.269 73.9828 147.269C73.7159 147.269 73.4536 147.199 73.2225 147.065C72.9914 146.932 72.7997 146.74 72.6667 146.508C72.5337 146.277 72.4642 146.014 72.4651 145.747V99.247C72.4652 98.0899 72.7697 96.9532 73.348 95.951C73.9263 94.9488 74.7581 94.1164 75.7598 93.5373L92.5329 83.8529C92.7418 83.7323 92.9789 83.6688 93.2201 83.6689C93.4613 83.6691 93.6982 83.7328 93.907 83.8536C94.1158 83.9744 94.2891 84.1482 94.4093 84.3573C94.5296 84.5664 94.5927 84.8035 94.5921 85.0447V89.9306C94.5938 90.5918 94.4217 91.2419 94.0932 91.8157C93.7647 92.3896 93.2912 92.867 92.7201 93.2004L80.4585 100.252Z" fill="#FAFAFA"/>
<path d="M116.688 71.9095C116.496 71.2581 116.158 70.6587 115.701 70.1565C115.244 69.6543 114.678 69.2623 114.048 69.0101C113.417 68.7578 112.737 68.6518 112.06 68.7001C111.382 68.7483 110.725 68.9496 110.136 69.2887L105.936 71.7161C105.396 72.0278 104.926 72.4492 104.557 72.9532C104.188 73.4571 103.929 74.0326 103.796 74.6426L91.2725 131.664C91.1744 132.144 91.2294 132.644 91.4297 133.091C91.6301 133.539 91.9657 133.913 92.3894 134.16L93.5376 134.821C93.8933 135.027 94.2968 135.135 94.7076 135.135C95.1184 135.135 95.5219 135.027 95.8776 134.821L100.938 131.901C101.643 131.469 102.216 130.855 102.598 130.122C103.025 129.383 103.338 128.584 103.528 127.751L105.562 117.355L115.796 111.446L116.856 115.671C117.007 116.221 117.35 116.7 117.824 117.018C118.248 117.268 121.2 118.959 121.624 119.215C121.898 119.332 122.199 119.373 122.494 119.334C122.79 119.294 123.069 119.176 123.302 118.99L129.48 115.421L116.688 71.9095ZM108.37 103.003L110.56 91.7277L110.691 91.1037L113.013 100.32L108.37 103.003Z" fill="#E0E0E0"/>
<path opacity="0.1" d="M121.574 119.184C121.019 118.853 118.236 117.262 117.83 117.018C117.356 116.7 117.013 116.221 116.863 115.671L115.802 111.446L118.635 109.811L120.663 117.861C120.813 118.39 121.133 118.855 121.574 119.184Z" fill="black"/>
<path opacity="0.1" d="M116.813 102.511L113.013 100.314L110.691 91.1038C110.691 91.1038 110.691 91.1038 110.691 91.0664C110.891 90.1678 111.091 89.1445 111.315 88.0088C111.584 86.5923 111.833 85.0822 112.07 83.4661C112.341 84.764 112.609 85.96 112.875 87.0541C113.144 88.1461 113.393 89.0821 113.63 89.8683L116.813 102.511Z" fill="black"/>
<path opacity="0.1" d="M95.1413 133.536C95.1074 133.686 95.1131 133.841 95.1576 133.988C95.2022 134.135 95.2842 134.268 95.3956 134.374C95.5069 134.48 95.6438 134.555 95.7929 134.591C95.9419 134.628 96.098 134.626 96.2458 134.584V134.634L95.8901 134.834C95.5344 135.039 95.1308 135.147 94.7201 135.147C94.3093 135.147 93.9058 135.039 93.5501 134.834L92.3894 134.16C91.9657 133.913 91.6301 133.539 91.4297 133.091C91.2294 132.644 91.1744 132.144 91.2725 131.664L103.79 74.6676C103.905 74.1403 104.116 73.6389 104.414 73.1887L108.214 75.3852C107.913 75.8312 107.701 76.3313 107.59 76.8578L95.1413 133.536Z" fill="black"/>
<path d="M129.486 115.44L123.302 119.009C122.61 119.408 122.054 119.483 121.63 119.234C121.157 118.914 120.814 118.436 120.663 117.886L118.635 109.824L105.531 117.368L103.503 127.764C103.307 128.597 102.992 129.398 102.567 130.141C102.187 130.873 101.613 131.487 100.907 131.913L96.433 134.503C96.2825 134.589 96.1105 134.629 95.9377 134.619C95.7649 134.609 95.5986 134.549 95.4589 134.447C95.3192 134.345 95.2119 134.205 95.1501 134.043C95.0882 133.881 95.0743 133.705 95.1101 133.536L107.559 76.8392C107.693 76.2303 107.952 75.6561 108.321 75.1532C108.689 74.6504 109.159 74.2299 109.699 73.9189L113.737 71.5851C114.024 71.4197 114.344 71.3215 114.675 71.298C115.005 71.2745 115.337 71.3263 115.644 71.4494C115.952 71.5726 116.228 71.7639 116.451 72.009C116.673 72.254 116.838 72.5465 116.931 72.8643L129.486 115.44ZM116.813 102.523L113.63 89.8558C113.393 89.0758 113.144 88.1336 112.875 87.0416C112.607 85.9496 112.339 84.7515 112.07 83.4536C111.84 85.0698 111.584 86.5736 111.322 87.9963C111.06 89.419 110.797 90.6421 110.56 91.7029L107.403 107.927L116.813 102.523Z" fill="#FAFAFA"/>
<path d="M159.064 93.5998C160.154 91.7264 161.111 89.7789 161.928 87.7716C162.772 85.7024 163.481 83.5804 164.05 81.4193C164.624 79.2355 165.061 77.0181 165.36 74.7799C165.666 72.5194 165.82 70.2408 165.822 67.9596C165.888 64.6057 165.459 61.2604 164.549 58.0318C163.899 55.6055 162.656 53.3794 160.93 51.5547C160.386 51.034 159.778 50.5852 159.12 50.2193L155.376 48.0478C154.191 47.3607 152.857 46.969 151.489 46.9059C149.292 46.7811 146.858 47.4903 144.188 49.0337C141.393 50.675 138.915 52.8056 136.874 55.3236C134.623 58.0559 132.728 61.0626 131.233 64.2718C128.017 71.1931 126.34 78.7293 126.316 86.3614C126.252 89.7201 126.685 93.0699 127.602 96.3017C128.249 98.7351 129.498 100.967 131.233 102.791C131.775 103.328 132.385 103.79 133.049 104.164C133.673 104.514 136.138 105.949 136.75 106.304C137.95 106.999 139.301 107.391 140.687 107.446C142.884 107.554 145.321 106.837 148 105.294C149.14 104.636 150.223 103.884 151.239 103.047L152.786 104.826C152.997 105.042 153.237 105.229 153.498 105.381C153.935 105.637 157.042 107.421 157.279 107.565C157.696 107.821 158.183 107.939 158.671 107.902C159.574 107.794 160.442 107.485 161.21 106.997L167.769 103.216L159.064 93.5998ZM153.211 77.9374C152.813 80.1389 152.175 82.29 151.308 84.3521C150.547 86.1794 149.528 87.8879 148.281 89.4252C147.143 90.8281 145.76 92.014 144.2 92.9258C143.057 93.6663 141.741 94.0964 140.381 94.1738C139.697 93.0655 139.21 91.8475 138.94 90.5734C138.46 88.3685 138.238 86.1153 138.278 83.8591C138.267 81.3604 138.488 78.8661 138.94 76.4086C139.327 74.2083 139.955 72.0571 140.812 69.9939C141.58 68.1585 142.605 66.4419 143.857 64.8958C145.003 63.4741 146.399 62.273 147.975 61.3515C149.098 60.6336 150.389 60.2207 151.719 60.1534C152.411 61.2713 152.905 62.4997 153.18 63.7851C153.669 65.9931 153.901 68.2503 153.872 70.5118C153.88 73.0103 153.658 75.5042 153.211 77.9623V77.9374Z" fill="#E0E0E0"/>
<path opacity="0.1" d="M136.594 106.236C135.801 105.78 133.623 104.514 133.049 104.189C132.385 103.815 131.775 103.353 131.233 102.816C129.498 100.992 128.249 98.7601 127.602 96.3267C126.685 93.0949 126.252 89.7451 126.316 86.3863C126.316 82.5438 126.747 78.7135 127.602 74.9671C128.363 71.5554 129.467 68.2292 130.897 65.0393L134.697 67.2358C131.695 73.9621 130.135 81.2422 130.117 88.6078C130.051 91.9645 130.485 95.3123 131.402 98.5419C132.048 100.978 133.297 103.212 135.034 105.038C135.508 105.493 136.031 105.895 136.594 106.236Z" fill="black"/>
<path opacity="0.1" d="M155.108 61.7758C154.741 61.3157 154.282 60.9367 153.761 60.6629C153.24 60.389 152.668 60.2261 152.081 60.1846C151.975 60.1846 151.863 60.1846 151.757 60.1846C152.445 61.3011 152.937 62.5274 153.211 63.81C153.688 66.0111 153.91 68.2599 153.872 70.5118C153.882 73.0228 153.661 75.5294 153.211 77.9998C152.813 80.2013 152.175 82.3524 151.308 84.4145C150.547 86.2418 149.528 87.9503 148.281 89.4876C147.143 90.8906 145.76 92.0764 144.2 92.9883C143.057 93.7287 141.741 94.1589 140.381 94.2363C140.517 94.4553 140.67 94.6639 140.837 94.8603C141.203 95.3239 141.664 95.7036 142.189 95.9738C142.715 96.244 143.292 96.3983 143.882 96.4265C145.347 96.4192 146.778 95.9855 148 95.1785C149.56 94.2667 150.943 93.0808 152.081 91.6779C153.325 90.1387 154.344 88.4306 155.108 86.6047C155.976 84.5408 156.614 82.3875 157.011 80.1838C157.461 77.7134 157.682 75.2068 157.672 72.6958C157.709 70.4501 157.487 68.2077 157.011 66.0127C156.714 64.472 156.062 63.0215 155.108 61.7758Z" fill="black"/>
<path opacity="0.1" d="M152.318 102.136C151.963 102.46 151.607 102.76 151.239 103.072L152.786 104.85C152.997 105.067 153.237 105.254 153.498 105.406C153.922 105.655 156.849 107.334 157.242 107.571C157 107.423 156.778 107.244 156.58 107.041L152.318 102.136Z" fill="black"/>
<path d="M167.769 103.241L161.21 107.028C160.442 107.511 159.577 107.817 158.677 107.927C158.284 107.946 157.892 107.877 157.53 107.723C157.168 107.57 156.846 107.336 156.587 107.041L152.318 102.136C150.999 103.351 149.551 104.418 148 105.318C145.321 106.862 142.884 107.579 140.687 107.471C138.56 107.393 136.541 106.515 135.034 105.013C133.299 103.185 132.051 100.952 131.402 98.5169C130.49 95.2947 130.057 91.956 130.116 88.6078C130.14 80.9757 131.817 73.4395 135.034 66.5182C136.531 63.3018 138.43 60.2887 140.687 57.5513C142.73 55.0347 145.206 52.9044 148 51.2614C150.671 49.7139 153.105 49.0046 155.301 49.1335C157.419 49.2347 159.423 50.1251 160.917 51.6295C162.646 53.4542 163.891 55.6832 164.536 58.1129C165.452 61.33 165.885 64.6652 165.822 68.0095C165.823 70.2906 165.67 72.5691 165.366 74.8299C165.061 77.0782 164.62 79.3059 164.043 81.5004C163.472 83.6596 162.762 85.7795 161.916 87.8465C161.101 89.8549 160.144 91.8025 159.051 93.6746L167.769 103.241ZM138.278 83.8966C138.238 86.1548 138.46 88.41 138.94 90.6171C139.234 92.1494 139.874 93.5944 140.812 94.8415C141.18 95.3025 141.642 95.6803 142.167 95.9502C142.692 96.2201 143.268 96.376 143.857 96.4078C145.322 96.3997 146.753 95.9661 147.975 95.1598C149.535 94.248 150.918 93.0621 152.056 91.6591C153.302 90.1202 154.323 88.4121 155.089 86.586C155.947 84.5208 156.574 82.3676 156.961 80.1651C157.414 77.6951 157.636 75.1882 157.622 72.6771C157.662 70.4313 157.44 68.1885 156.961 65.994C156.668 64.4612 156.028 63.0159 155.089 61.7695C154.721 61.3093 154.261 60.9303 153.739 60.6564C153.217 60.3826 152.644 60.2198 152.056 60.1783C150.608 60.1665 149.188 60.5833 147.975 61.3764C146.398 62.2937 145.002 63.493 143.857 64.9145C142.607 66.4622 141.582 68.1784 140.812 70.0126C139.958 72.0769 139.33 74.2277 138.94 76.4273C138.489 78.8828 138.267 81.375 138.278 83.8716V83.8966Z" fill="#FAFAFA"/>
</svg>
