<svg width="20" height="12" viewBox="0 0 20 12" fill="none" xmlns="http://www.w3.org/2000/svg">
<path d="M19.7742 5.12868L19.7652 5.1189C19.7599 5.11338 19.755 5.10805 19.7493 5.10235L19.7074 5.06144C19.6731 5.028 19.6356 4.99723 19.5946 4.96895L13.7076 0.210542C13.4201 -0.0210443 13.0342 -0.0651585 12.7007 0.0959941C12.3677 0.256609 12.1527 0.584267 12.1527 0.930014C12.1527 1.19006 12.2709 1.42912 12.4861 1.60288L16.4543 4.81042C16.4543 4.81042 1.43095 4.81042 0.911246 4.81042C0.391542 4.81042 0 5.21009 0 5.74015C0 6.27004 0.391691 6.66989 0.911246 6.66989H16.4543L12.4862 9.87728C12.271 10.0512 12.1524 10.2903 12.1524 10.5503C12.1524 10.8967 12.3676 11.2243 12.7011 11.3849C13.035 11.5455 13.4207 11.5012 13.7078 11.2691L19.5952 6.50979C19.62 6.49271 19.6438 6.47439 19.6663 6.45553L19.7278 6.42476L19.7777 6.34686C19.9201 6.18766 20 5.97155 20 5.7396C20.0005 5.50535 19.9187 5.28771 19.7742 5.12868Z" fill="#ff4d00"/>
</svg>
