<svg width="6" height="8" viewBox="0 0 6 8" fill="none" xmlns="http://www.w3.org/2000/svg">
<path d="M1.49078 0.158311L5.37327 3.70449C5.41935 3.7467 5.45207 3.79244 5.47142 3.84169C5.49078 3.89094 5.5003 3.94371 5.49999 4C5.49999 4.05629 5.49032 4.10906 5.47096 4.15831C5.45161 4.20756 5.41904 4.2533 5.37327 4.29552L1.49078 7.85224C1.38325 7.95075 1.24885 8 1.08756 8C0.926266 8 0.788018 7.94723 0.672811 7.84169C0.557603 7.73615 0.5 7.61302 0.5 7.4723C0.5 7.33157 0.557603 7.20844 0.672811 7.1029L4.0599 4L0.672811 0.897098C0.565284 0.798593 0.511521 0.677151 0.511521 0.532771C0.511521 0.388391 0.569124 0.263571 0.684332 0.158311C0.799539 0.0527707 0.933947 7.76601e-08 1.08756 9.10891e-08C1.24117 1.04518e-07 1.37557 0.0527707 1.49078 0.158311Z" fill="#525252"/>
</svg>
