<svg width="18" height="11" viewBox="0 0 18 11" fill="none" xmlns="http://www.w3.org/2000/svg">
<path d="M9.03879 10.4991C9.34609 10.4918 9.6398 10.37 9.86305 10.1572L17.621 2.65491C17.8577 2.42407 17.9939 2.10809 17.9998 1.77623C18.0057 1.44438 17.8807 1.12372 17.6522 0.884547C17.4238 0.64537 17.1105 0.507171 16.7811 0.500274C16.4517 0.493376 16.133 0.618336 15.8949 0.847744L9 7.51966L2.10515 0.847743C1.86703 0.618334 1.54833 0.493374 1.21891 0.500272C0.889495 0.507169 0.576228 0.645369 0.347779 0.884546C0.11933 1.12372 -0.00566403 1.44437 0.00019722 1.77623C0.00605847 2.10809 0.142295 2.42406 0.379044 2.6549L8.13695 10.1572C8.25706 10.2718 8.39872 10.3612 8.5536 10.4199C8.70847 10.4786 8.87344 10.5055 9.03879 10.4991Z" fill="#333333"/>
</svg>
