<svg width="100" height="77" viewBox="0 0 100 77" fill="none" xmlns="http://www.w3.org/2000/svg">
<path d="M98.6177 2.43351C99.1695 2.41128 99.5988 1.94592 99.5766 1.39408C99.5544 0.84224 99.089 0.412904 98.5372 0.435129L98.6177 2.43351ZM46.5524 35.3655L46.1663 36.2879L46.2681 36.3305L46.3768 36.3499L46.5524 35.3655ZM5.13902 76.0728C5.4189 76.5489 6.03176 76.708 6.50787 76.4281L14.2666 71.8671C14.7427 71.5872 14.9018 70.9743 14.6219 70.4982C14.342 70.0221 13.7291 69.8631 13.253 70.1429L6.35639 74.1972L2.30218 67.3005C2.0223 66.8244 1.40944 66.6653 0.933329 66.9452C0.457218 67.2251 0.298143 67.838 0.578029 68.3141L5.13902 76.0728ZM98.5372 0.435129C93.2655 0.647429 86.0504 2.36599 78.5626 4.92091C71.0579 7.48155 63.2011 10.9093 56.6288 14.5912C50.1041 18.2464 44.6856 22.2385 42.2366 25.9804C41.0011 27.8682 40.4107 29.8673 41.0637 31.7793C41.71 33.6717 43.4682 35.1583 46.1663 36.2879L46.9386 34.4431C44.4676 33.4085 43.3336 32.2376 42.9563 31.1329C42.5857 30.0477 42.8403 28.7101 43.9101 27.0757C46.0716 23.773 51.1048 19.9783 57.6063 16.336C64.0603 12.7204 71.8042 9.34013 79.2084 6.81376C86.6294 4.28168 93.6311 2.63433 98.6177 2.43351L98.5372 0.435129ZM46.3768 36.3499C50.618 37.1067 53.6244 36.207 55.1542 34.325C56.7094 32.4116 56.4539 29.8239 54.8367 27.9957C53.2116 26.1585 50.2961 25.1172 46.4788 25.7717C42.6672 26.4253 37.906 28.7649 32.3569 33.7475L33.6931 35.2356C39.072 30.4059 43.5 28.3117 46.8168 27.743C50.1277 27.1753 52.2796 28.1235 53.3387 29.3208C54.4057 30.5271 54.4512 32.019 53.6022 33.0635C52.7276 34.1395 50.6243 35.0762 46.7281 34.381L46.3768 36.3499ZM32.3569 33.7475C21.3647 43.6175 15.0923 51.8105 11.284 58.6622C7.47261 65.5196 6.155 70.9927 5.03317 75.3148L6.96902 75.8172C8.08977 71.4994 9.35621 66.2475 13.0322 59.6338C16.7113 53.0144 22.8296 44.9901 33.6931 35.2356L32.3569 33.7475Z" fill="#333333"/>
</svg>
