<svg width="24" height="24" viewBox="0 0 24 24" fill="none" xmlns="http://www.w3.org/2000/svg">
<path fill-rule="evenodd" clip-rule="evenodd" d="M11.916 23.0012C5.7935 23.0012 0.832031 18.0384 0.832031 11.9172C0.832031 5.79611 5.7935 0.833252 11.916 0.833252C18.0371 0.833252 23 5.79611 23 11.9172C23 18.0384 18.0371 23.0012 11.916 23.0012ZM11.9257 13.8708L13.7379 15.683C14.2741 16.2192 15.1456 16.2192 15.6818 15.683C16.2194 15.1468 16.2194 14.2754 15.6818 13.7392L13.8696 11.9269L15.6818 10.1133C16.218 9.57713 16.218 8.70704 15.6818 8.16946C15.1442 7.63189 14.2741 7.63189 13.7379 8.16946L11.9257 9.9817L10.1066 8.16392C9.57037 7.62635 8.69889 7.62635 8.1627 8.16392C7.62513 8.70011 7.62513 9.5702 8.1627 10.1078L9.98048 11.9256L8.1627 13.7447C7.62513 14.2823 7.62513 15.1524 8.1627 15.6886C8.69889 16.2261 9.57037 16.2261 10.1066 15.6886L11.9257 13.8708Z" fill="#333333"/>
<path fill-rule="evenodd" clip-rule="evenodd" d="M11.916 23.0012C5.7935 23.0012 0.832031 18.0384 0.832031 11.9172C0.832031 5.79611 5.7935 0.833252 11.916 0.833252C18.0371 0.833252 23 5.79611 23 11.9172C23 18.0384 18.0371 23.0012 11.916 23.0012ZM11.9257 13.8708L13.7379 15.683C14.2741 16.2192 15.1456 16.2192 15.6818 15.683C16.2194 15.1468 16.2194 14.2754 15.6818 13.7392L13.8696 11.9269L15.6818 10.1133C16.218 9.57713 16.218 8.70704 15.6818 8.16946C15.1442 7.63189 14.2741 7.63189 13.7379 8.16946L11.9257 9.9817L10.1066 8.16392C9.57037 7.62635 8.69889 7.62635 8.1627 8.16392C7.62513 8.70011 7.62513 9.5702 8.1627 10.1078L9.98048 11.9256L8.1627 13.7447C7.62513 14.2823 7.62513 15.1524 8.1627 15.6886C8.69889 16.2261 9.57037 16.2261 10.1066 15.6886L11.9257 13.8708Z" fill="#333333"/>
</svg>
