<svg width="16" height="16" viewBox="0 0 16 16" fill="none" xmlns="http://www.w3.org/2000/svg">
<path fill-rule="evenodd" clip-rule="evenodd" d="M0 2.64445C0 2.27626 0.275517 1.97778 0.615385 1.97778H15.3846C15.7245 1.97778 16 2.27626 16 2.64445C16 3.01264 15.7245 3.31112 15.3846 3.31112H0.615385C0.275517 3.31112 0 3.01264 0 2.64445Z" fill="#333333"/>
<circle cx="11.1128" cy="2.42217" r="1.56928" fill="white" stroke="#333333" stroke-width="1.30589"/>
<path fill-rule="evenodd" clip-rule="evenodd" d="M16 8.08879C16 7.7206 15.7245 7.42212 15.3846 7.42212H0.615384C0.275517 7.42212 0 7.7206 0 8.08879C0 8.45698 0.275517 8.75545 0.615384 8.75545H15.3846C15.7245 8.75545 16 8.45698 16 8.08879Z" fill="#333333"/>
<circle cx="2.22222" cy="2.22222" r="1.56928" transform="matrix(-1 0 0 1 7.10938 5.64429)" fill="white" stroke="#333333" stroke-width="1.30589"/>
<path fill-rule="evenodd" clip-rule="evenodd" d="M0 13.5334C0 13.1652 0.275517 12.8667 0.615385 12.8667H15.3846C15.7245 12.8667 16 13.1652 16 13.5334C16 13.9016 15.7245 14.2 15.3846 14.2H0.615385C0.275517 14.2 0 13.9016 0 13.5334Z" fill="#333333"/>
<circle cx="11.1128" cy="13.3111" r="1.56928" fill="white" stroke="#333333" stroke-width="1.30589"/>
</svg>