<svg width="59" height="58" viewBox="0 0 59 58" fill="none" xmlns="http://www.w3.org/2000/svg">
<circle cx="29.5" cy="29" r="29" fill="#FFB800"/>
<path d="M28.2441 34.5205C26.8711 34.5205 26.1123 33.5449 26.1123 32.2261V31.8828C26.1123 29.6426 27.2324 28.1611 29.4907 26.8242C31.731 25.4692 32.4897 24.4756 32.4897 22.7412C32.4897 20.772 30.9541 19.3989 28.7319 19.3989C26.7266 19.3989 25.3896 20.3926 24.8115 22.2173C24.4141 23.3374 23.7456 23.7891 22.752 23.7891C21.5054 23.7891 20.7646 23.0303 20.7646 21.8198C20.7646 21.043 20.9272 20.3745 21.2705 19.688C22.3906 17.231 25.209 15.7134 28.9307 15.7134C33.8267 15.7134 37.187 18.4956 37.187 22.5786C37.187 25.3428 35.814 27.2397 33.3569 28.7031C30.9902 30.0762 30.4121 30.9434 30.2676 32.5874C30.0869 33.7798 29.4727 34.5205 28.2441 34.5205ZM28.2803 42.3613C26.8169 42.3613 25.6426 41.2231 25.6426 39.7959C25.6426 38.3687 26.8169 37.2485 28.2803 37.2485C29.7437 37.2485 30.8999 38.3687 30.8999 39.7959C30.8999 41.2231 29.7437 42.3613 28.2803 42.3613Z" fill="white"/>
</svg>
