<svg width="59" height="58" viewBox="0 0 59 58" fill="none" xmlns="http://www.w3.org/2000/svg">
<circle cx="29.5" cy="29" r="29" fill="#CE1A02"/>
<path fill-rule="evenodd" clip-rule="evenodd" d="M29.1933 15.1309C30.4176 15.1309 31.4102 16.1234 31.4102 17.3477L31.4102 32.549C31.4102 33.7734 30.4176 34.7659 29.1933 34.7659C27.969 34.7659 26.9764 33.7734 26.9764 32.549L26.9764 17.3477C26.9764 16.1234 27.969 15.1309 29.1933 15.1309Z" fill="white"/>
<path d="M31.4103 40.1485C31.4103 41.3728 30.4178 42.3654 29.1934 42.3654C27.9691 42.3654 26.9766 41.3728 26.9766 40.1485C26.9766 38.9242 27.9691 37.9316 29.1934 37.9316C30.4178 37.9316 31.4103 38.9242 31.4103 40.1485Z" fill="white"/>
</svg>
