<svg width="59" height="58" viewBox="0 0 59 58" fill="none" xmlns="http://www.w3.org/2000/svg">
<circle cx="29.5" cy="29" r="29" fill="#13E900"/>
<path d="M26.5527 39.8336C26.6889 41.125 27.7324 42.1296 29 42.1296C30.2676 42.1296 31.311 41.1249 31.4473 39.8336H26.5527ZM34.1912 39.8336C34.0489 42.7119 31.779 45 29 45C26.221 45 23.9511 42.7119 23.8088 39.8336H16.963C15.6027 39.8336 14.5 38.6779 14.5 37.2512V36.6753C14.5 34.5942 15.91 32.8584 17.7829 32.4574V25.7685C17.7829 19.2673 22.8043 14 29 14C35.1957 14 40.2171 19.2682 40.2171 25.7685V32.4574C42.0923 32.8571 43.5 34.5922 43.5 36.6753V37.2512C43.5 38.6819 42.3977 39.8336 41.037 39.8336H34.1912ZM40.7642 36.6752C40.7642 35.8816 40.1531 35.2409 39.3913 35.2409C38.3355 35.2409 37.4813 34.3379 37.4813 33.2358V25.7684C37.4813 20.8538 33.6848 16.8706 29 16.8706C24.3152 16.8706 20.5187 20.8526 20.5187 25.7684V33.2358C20.5187 34.3427 19.6599 35.2409 18.6087 35.2409C17.8499 35.2409 17.2358 35.884 17.2358 36.6752V36.9632H40.7644L40.7642 36.6752Z" fill="white"/>
</svg>
