<svg width="100" height="100" viewBox="0 0 100 100" fill="none" xmlns="http://www.w3.org/2000/svg">
<g clip-path="url(#clip0_497_818)">
<path d="M65.2269 72.5881C65.8997 72.5881 66.4495 72.043 66.3879 71.375C66.0712 67.7401 64.3385 64.3118 61.4799 61.7141C58.3047 58.8308 53.9948 57.209 49.5046 57.209C45.0144 57.209 40.7045 58.8308 37.5293 61.7141C34.6707 64.3118 32.9379 67.7401 32.6213 71.375C32.5641 72.043 33.1138 72.5881 33.7823 72.5881H65.2269Z" fill="url(#paint0_linear_497_818)"/>
<path d="M49.5025 78.5658C58.856 78.5658 66.4386 75.4586 66.4386 71.6257C66.4386 67.7928 58.856 64.6855 49.5025 64.6855C40.1489 64.6855 32.5664 67.7928 32.5664 71.6257C32.5664 75.4586 40.1489 78.5658 49.5025 78.5658Z" fill="url(#paint1_linear_497_818)"/>
<path d="M49.5414 70.6278C67.0195 70.6278 81.1882 58.6181 81.1882 43.8034C81.1882 28.9887 67.0195 16.979 49.5414 16.979C32.0633 16.979 17.8945 28.9887 17.8945 43.8034C17.8945 58.6181 32.0633 70.6278 49.5414 70.6278Z" fill="url(#paint2_linear_497_818)"/>
<path fill-rule="evenodd" clip-rule="evenodd" d="M49.5464 34.4192C46.7698 31.2784 42.7129 29.2983 38.194 29.2983C29.8242 29.2983 23.0391 36.0913 23.0391 44.4708C23.0391 49.2389 25.2359 53.4932 28.6714 56.2747C32.3165 60.5248 40.2848 63.7793 49.5254 63.7793C58.8333 63.7793 66.8504 60.4748 70.4583 56.1796C73.8144 53.3968 75.9537 49.1849 75.9537 44.4708C75.9537 36.0913 69.1942 29.2983 60.8559 29.2983C56.3541 29.2983 52.3125 31.2784 49.5464 34.4192Z" fill="white"/>
<path d="M33.5516 46.3C33.0458 46.2077 32.6984 45.7154 32.8963 45.2407C33.1558 44.6254 33.5516 44.076 34.0661 43.6365C34.8181 42.9948 35.7681 42.6299 36.7532 42.6036C37.7427 42.5772 38.7102 42.8937 39.493 43.4958C40.0296 43.909 40.4562 44.4364 40.7464 45.0342C40.9707 45.5001 40.6497 46.0099 40.1483 46.1286C39.647 46.2473 39.1544 45.9176 38.8553 45.5001C38.7146 45.3023 38.5475 45.1265 38.354 44.977C37.9098 44.6342 37.3645 44.4584 36.806 44.4716C36.2474 44.4848 35.7109 44.6913 35.2843 45.0561C35.0996 45.2144 34.9369 45.399 34.8093 45.6056C34.5323 46.0407 34.0617 46.3967 33.5516 46.3044V46.3Z" fill="#FF4D00"/>
<path d="M59.6375 46.3C59.1317 46.2077 58.7843 45.7154 58.9822 45.2407C59.2417 44.6254 59.6375 44.076 60.152 43.6365C60.9041 42.9948 61.854 42.6299 62.8391 42.6036C63.8286 42.5772 64.7962 42.8937 65.579 43.4958C66.1155 43.909 66.5421 44.4364 66.828 45.0342C67.0523 45.5001 66.7312 46.0099 66.2299 46.1286C65.7285 46.2473 65.2359 45.9176 64.9369 45.5001C64.7962 45.3023 64.629 45.1265 64.4355 44.977C63.9914 44.6342 63.446 44.4584 62.8875 44.4716C62.329 44.4848 61.7924 44.6913 61.3658 45.0561C61.1811 45.2144 61.0184 45.399 60.8909 45.6056C60.6138 46.0407 60.1432 46.3967 59.6331 46.3044L59.6375 46.3Z" fill="#FF4D00"/>
<path d="M49.8103 50.6074C49.6872 50.8579 49.3353 50.8579 49.2122 50.6074L48.2403 48.6075C48.1347 48.3877 48.293 48.1328 48.5393 48.1328H50.4832C50.7294 48.1328 50.8878 48.3877 50.7822 48.6075L49.8103 50.6074Z" fill="#FF5C00"/>
<path d="M50.0678 -0.0237295C49.8569 -0.479233 49.206 -0.479021 48.9954 -0.0233812L46.4797 5.41974C46.4078 5.57537 46.4078 5.75449 46.4797 5.91012L48.9954 11.3532C49.206 11.8089 49.8569 11.8091 50.0678 11.3536L52.5878 5.91047C52.6599 5.75464 52.6599 5.57522 52.5878 5.41939L50.0678 -0.0237295Z" fill="#FF4C00"/>
<path d="M24.4817 86.186C24.4817 86.3734 24.4328 86.5404 24.3351 86.6871C24.2373 86.8256 24.1232 86.9356 23.9929 87.017C23.7811 86.8785 23.5489 86.7563 23.2963 86.6504C23.0519 86.5445 22.7586 86.4915 22.4164 86.4915C21.7646 86.4915 21.2553 86.6993 20.8887 87.1148C20.5221 87.5222 20.3388 88.1047 20.3388 88.8624C20.3388 89.6446 20.5302 90.2353 20.9132 90.6345C21.3042 91.0256 21.8379 91.2211 22.5141 91.2211C22.8645 91.2211 23.1618 91.1763 23.4063 91.0867C23.6588 90.9889 23.891 90.8748 24.1029 90.7445C24.2251 90.8422 24.3229 90.9685 24.3962 91.1233C24.4777 91.27 24.5184 91.437 24.5184 91.6244C24.5184 91.7873 24.4736 91.9422 24.384 92.0888C24.3025 92.2273 24.1558 92.3454 23.944 92.4432C23.7811 92.5247 23.5611 92.598 23.2841 92.6632C23.007 92.7365 22.6649 92.7732 22.2575 92.7732C21.7116 92.7732 21.2024 92.6958 20.7298 92.541C20.2573 92.3862 19.8458 92.1499 19.4955 91.8322C19.1452 91.5144 18.8681 91.1111 18.6645 90.6223C18.4689 90.1253 18.3712 89.5387 18.3712 88.8624C18.3712 88.2269 18.4689 87.6647 18.6645 87.1759C18.8681 86.6871 19.1411 86.2797 19.4833 85.9538C19.8255 85.6197 20.2247 85.3672 20.681 85.1961C21.1372 85.025 21.6261 84.9394 22.1475 84.9394C22.8889 84.9394 23.4633 85.0576 23.8707 85.2938C24.278 85.5301 24.4817 85.8275 24.4817 86.186ZM27.6741 92.5532C27.5927 92.5777 27.4786 92.598 27.3319 92.6143C27.1853 92.6388 27.0223 92.651 26.8431 92.651C26.4765 92.651 26.2117 92.5939 26.0487 92.4799C25.8858 92.3577 25.8043 92.1255 25.8043 91.7833V84.6095C25.8939 84.585 26.0121 84.5606 26.1587 84.5361C26.3054 84.5117 26.4683 84.4995 26.6476 84.4995C27.0142 84.4995 27.2749 84.5606 27.4297 84.6828C27.5927 84.805 27.6741 85.0372 27.6741 85.3794V86.7848C27.8452 86.7033 28.0367 86.6382 28.2485 86.5893C28.4685 86.5323 28.7048 86.5037 28.9573 86.5037C29.7395 86.5037 30.3506 86.7033 30.7905 87.1026C31.2386 87.4937 31.4627 88.0843 31.4627 88.8746V92.5532C31.3812 92.5777 31.2671 92.598 31.1205 92.6143C30.9738 92.6388 30.8109 92.651 30.6316 92.651C30.265 92.651 30.0002 92.5939 29.8373 92.4799C29.6743 92.3577 29.5928 92.1255 29.5928 91.7833V88.9846C29.5928 88.618 29.4992 88.3573 29.3118 88.2025C29.1325 88.0477 28.9003 87.9703 28.6152 87.9703C28.4278 87.9703 28.2567 87.9988 28.1019 88.0558C27.9471 88.1047 27.8045 88.1658 27.6741 88.2391V92.5532ZM34.6292 90.4023C34.7433 90.7445 34.9429 90.9889 35.228 91.1356C35.5132 91.2741 35.8432 91.3433 36.218 91.3433C36.5601 91.3433 36.882 91.2985 37.1834 91.2089C37.4849 91.1111 37.7293 91.0052 37.9167 90.8911C38.0389 90.9726 38.1408 91.0785 38.2222 91.2089C38.3037 91.3392 38.3444 91.4818 38.3444 91.6366C38.3444 91.824 38.2874 91.987 38.1733 92.1255C38.0593 92.264 37.9004 92.3821 37.6967 92.4799C37.5012 92.5695 37.2649 92.6347 36.9879 92.6754C36.719 92.7243 36.4216 92.7487 36.0957 92.7487C35.615 92.7487 35.171 92.6836 34.7636 92.5532C34.3563 92.4147 34.0059 92.2151 33.7126 91.9544C33.4193 91.6855 33.1871 91.3515 33.016 90.9522C32.8531 90.553 32.7716 90.0845 32.7716 89.5468C32.7716 89.0254 32.8531 88.5732 33.016 88.1903C33.1871 87.8073 33.4112 87.4896 33.6882 87.237C33.9733 86.9844 34.2952 86.8011 34.6536 86.6871C35.0203 86.5648 35.3951 86.5037 35.778 86.5037C36.1935 86.5037 36.5724 86.5689 36.9146 86.6993C37.2649 86.8215 37.5623 86.9967 37.8067 87.2248C38.0593 87.4529 38.2548 87.7259 38.3933 88.0436C38.5318 88.3614 38.6011 88.7076 38.6011 89.0824C38.6011 89.3431 38.5318 89.5387 38.3933 89.669C38.2548 89.7994 38.0593 89.8849 37.8067 89.9257L34.6292 90.4023ZM35.7902 87.8847C35.4399 87.8847 35.1466 87.9947 34.9103 88.2147C34.6822 88.4265 34.5477 88.7361 34.507 89.1435L36.8412 88.7647C36.8249 88.5528 36.7312 88.3532 36.5601 88.1658C36.3891 87.9784 36.1324 87.8847 35.7902 87.8847ZM43.0736 87.9825C42.6337 87.9825 42.2589 88.1251 41.9493 88.4102C41.6397 88.6872 41.4849 89.0987 41.4849 89.6446C41.4849 90.1905 41.6315 90.5978 41.9249 90.8667C42.2263 91.1356 42.6052 91.27 43.0614 91.27C43.3221 91.27 43.5503 91.2374 43.7458 91.1722C43.9495 91.0989 44.1206 91.0256 44.2591 90.9522C44.3976 91.0582 44.5035 91.1722 44.5768 91.2944C44.6583 91.4085 44.6991 91.5511 44.6991 91.7222C44.6991 92.0318 44.5361 92.2803 44.2102 92.4677C43.8843 92.6551 43.4321 92.7487 42.8537 92.7487C42.3648 92.7487 41.9167 92.6836 41.5093 92.5532C41.1101 92.4228 40.7679 92.2273 40.4828 91.9666C40.1976 91.7059 39.9776 91.3841 39.8228 91.0011C39.668 90.61 39.5906 90.1579 39.5906 89.6446C39.5906 89.115 39.6762 88.6547 39.8473 88.2636C40.0184 87.8725 40.2506 87.5466 40.5439 87.2859C40.8372 87.0252 41.1794 86.8296 41.5704 86.6993C41.9615 86.5689 42.373 86.5037 42.8048 86.5037C43.3669 86.5037 43.8069 86.6056 44.1247 86.8093C44.4506 87.013 44.6135 87.2696 44.6135 87.5792C44.6135 87.7259 44.5768 87.8603 44.5035 87.9825C44.4383 88.1047 44.3569 88.2106 44.2591 88.3002C44.1124 88.2188 43.9373 88.1454 43.7336 88.0803C43.538 88.0151 43.3181 87.9825 43.0736 87.9825ZM49.4813 89.5468L51.5955 91.6C51.5548 91.9422 51.4489 92.2069 51.2778 92.3943C51.1148 92.5736 50.8785 92.6632 50.5689 92.6632C50.3327 92.6632 50.1249 92.6062 49.9457 92.4921C49.7664 92.378 49.5668 92.1906 49.3468 91.9299L47.8925 90.2067V92.5532C47.811 92.5777 47.697 92.598 47.5503 92.6143C47.4037 92.6388 47.2407 92.651 47.0615 92.651C46.6948 92.651 46.43 92.5939 46.2671 92.4799C46.1041 92.3577 46.0227 92.1255 46.0227 91.7833V84.6095C46.1123 84.585 46.2304 84.5606 46.3771 84.5361C46.5237 84.5117 46.6867 84.4995 46.8659 84.4995C47.2326 84.4995 47.4933 84.5606 47.6481 84.6828C47.811 84.805 47.8925 85.0372 47.8925 85.3794V88.838L50.1045 86.5893C50.4875 86.5893 50.793 86.6748 51.0211 86.8459C51.2492 87.017 51.3633 87.2289 51.3633 87.4814C51.3633 87.7014 51.2859 87.8969 51.1311 88.068C50.9845 88.231 50.7523 88.451 50.4345 88.728L49.4813 89.5468ZM57.926 90.72C57.8282 90.8015 57.7019 90.8667 57.5471 90.9156C57.3923 90.9645 57.2171 90.9889 57.0216 90.9889C56.7609 90.9889 56.5409 90.9563 56.3617 90.8911C56.1906 90.826 56.0765 90.7119 56.0195 90.5489C55.7588 89.7912 55.5347 89.1639 55.3473 88.6669C55.1681 88.1617 55.0255 87.7259 54.9196 87.3592H54.8707C54.8462 87.8644 54.8259 88.3288 54.8096 88.7524C54.7933 89.1679 54.777 89.5753 54.7607 89.9745C54.7525 90.3738 54.7403 90.7771 54.724 91.1844C54.7077 91.5918 54.6874 92.0399 54.6629 92.5288C54.5733 92.5614 54.4511 92.5899 54.2963 92.6143C54.1496 92.6469 53.9948 92.6632 53.8319 92.6632C53.5141 92.6632 53.2656 92.6102 53.0864 92.5043C52.9072 92.3903 52.8175 92.1988 52.8175 91.9299C52.8175 91.7751 52.8216 91.5633 52.8298 91.2944C52.846 91.0174 52.8623 90.7037 52.8786 90.3534C52.9031 89.9949 52.9275 89.612 52.952 89.2046C52.9846 88.7972 53.0131 88.3858 53.0375 87.9703C53.0701 87.5466 53.0986 87.1311 53.1231 86.7237C53.1475 86.3082 53.1719 85.9253 53.1964 85.5749C53.2616 85.4853 53.3919 85.3875 53.5875 85.2816C53.7912 85.1676 54.0722 85.1105 54.4307 85.1105C54.8137 85.1105 55.1151 85.1716 55.3351 85.2938C55.5551 85.4161 55.7221 85.6157 55.8362 85.8927C55.9258 86.1127 56.0195 86.3612 56.1172 86.6382C56.215 86.907 56.3128 87.184 56.4106 87.4692C56.5083 87.7544 56.602 88.0395 56.6916 88.3247C56.7894 88.6017 56.879 88.8583 56.9605 89.0946H57.0216C57.2497 88.3776 57.4779 87.6851 57.706 87.017C57.9341 86.3408 58.1337 85.7745 58.3048 85.3183C58.4189 85.2613 58.5615 85.2124 58.7326 85.1716C58.9118 85.1309 59.1074 85.1105 59.3192 85.1105C59.6858 85.1105 59.9791 85.1635 60.1991 85.2694C60.4191 85.3753 60.5494 85.5301 60.5902 85.7338C60.6228 85.8968 60.6594 86.1452 60.7002 86.4793C60.7409 86.8133 60.7817 87.1963 60.8224 87.6281C60.8631 88.0599 60.9039 88.5162 60.9446 88.9969C60.9853 89.4694 61.022 89.9297 61.0546 90.3778C61.0872 90.8178 61.1157 91.2211 61.1401 91.5877C61.1646 91.9544 61.1809 92.2395 61.189 92.4432C61.0668 92.5165 60.9365 92.5695 60.7979 92.6021C60.6594 92.6428 60.4843 92.6632 60.2724 92.6632C60.0036 92.6632 59.7714 92.6143 59.5758 92.5165C59.3884 92.4188 59.2866 92.2273 59.2703 91.9422C59.2133 90.997 59.1725 90.1334 59.1481 89.3513C59.1318 88.561 59.1114 87.9132 59.087 87.4081H59.0259C58.9281 87.7503 58.7855 88.1821 58.5981 88.7035C58.4189 89.225 58.1948 89.8971 57.926 90.72ZM65.1358 91.38C65.315 91.38 65.4902 91.3637 65.6613 91.3311C65.8405 91.2904 65.975 91.2415 66.0646 91.1844V90.0601L65.0625 90.1456C64.8017 90.1701 64.5899 90.2312 64.427 90.329C64.2722 90.4186 64.1948 90.5571 64.1948 90.7445C64.1948 90.94 64.2681 91.0948 64.4147 91.2089C64.5614 91.3229 64.8017 91.38 65.1358 91.38ZM65.0625 86.5037C65.4861 86.5037 65.8691 86.5485 66.2112 86.6382C66.5616 86.7196 66.859 86.85 67.1034 87.0292C67.3478 87.2085 67.5352 87.4366 67.6656 87.7136C67.8041 87.9906 67.8733 88.3165 67.8733 88.6913V91.4533C67.8733 91.6651 67.8163 91.8362 67.7022 91.9666C67.5963 92.0888 67.466 92.1947 67.3112 92.2843C67.0586 92.4391 66.749 92.5573 66.3823 92.6388C66.0157 92.7202 65.6002 92.761 65.1358 92.761C64.2966 92.761 63.6285 92.6021 63.1315 92.2843C62.6345 91.9584 62.386 91.4655 62.386 90.8056C62.386 90.2434 62.553 89.8157 62.8871 89.5224C63.2211 89.2291 63.7344 89.0457 64.427 88.9724L66.0524 88.8013V88.6669C66.0524 88.4062 65.9465 88.2147 65.7346 88.0925C65.5228 87.9703 65.2173 87.9092 64.818 87.9092C64.5084 87.9092 64.2029 87.9458 63.9015 88.0192C63.6081 88.0925 63.3434 88.178 63.1071 88.2758C63.0093 88.2106 62.9238 88.1129 62.8504 87.9825C62.7853 87.844 62.7527 87.6973 62.7527 87.5425C62.7527 87.184 62.9401 86.9274 63.3148 86.7726C63.5511 86.683 63.824 86.6178 64.1337 86.5771C64.4514 86.5282 64.761 86.5037 65.0625 86.5037ZM71.2849 90.6223C71.2849 90.8504 71.3583 91.0174 71.5049 91.1233C71.6516 91.2211 71.8553 91.27 72.116 91.27C72.2382 91.27 72.3685 91.2578 72.507 91.2333C72.6456 91.2007 72.7637 91.1641 72.8615 91.1233C72.9348 91.2048 72.9959 91.2985 73.0448 91.4044C73.0937 91.5103 73.1181 91.6325 73.1181 91.7711C73.1181 92.0562 73.004 92.2925 72.7759 92.4799C72.5559 92.6591 72.1689 92.7487 71.6149 92.7487C70.9305 92.7487 70.3969 92.5939 70.0139 92.2843C69.631 91.9666 69.4395 91.4533 69.4395 90.7445V85.2572C69.5292 85.2327 69.6473 85.2083 69.794 85.1839C69.9406 85.1513 70.0995 85.135 70.2706 85.135C70.6291 85.135 70.8857 85.2001 71.0405 85.3305C71.2035 85.4527 71.2849 85.6808 71.2849 86.0149V86.8093H72.9715C73.0122 86.8907 73.0529 86.9967 73.0937 87.127C73.1344 87.2492 73.1548 87.3796 73.1548 87.5181C73.1548 87.7788 73.0937 87.9662 72.9715 88.0803C72.8574 88.1943 72.7067 88.2514 72.5193 88.2514H71.2849V90.6223ZM75.9014 90.4023C76.0154 90.7445 76.2151 90.9889 76.5002 91.1356C76.7854 91.2741 77.1153 91.3433 77.4901 91.3433C77.8323 91.3433 78.1541 91.2985 78.4556 91.2089C78.7571 91.1111 79.0015 91.0052 79.1889 90.8911C79.3111 90.9726 79.4129 91.0785 79.4944 91.2089C79.5759 91.3392 79.6166 91.4818 79.6166 91.6366C79.6166 91.824 79.5596 91.987 79.4455 92.1255C79.3315 92.264 79.1726 92.3821 78.9689 92.4799C78.7734 92.5695 78.5371 92.6347 78.2601 92.6754C77.9912 92.7243 77.6938 92.7487 77.3679 92.7487C76.8872 92.7487 76.4432 92.6836 76.0358 92.5532C75.6284 92.4147 75.2781 92.2151 74.9848 91.9544C74.6915 91.6855 74.4593 91.3515 74.2882 90.9522C74.1252 90.553 74.0438 90.0845 74.0438 89.5468C74.0438 89.0254 74.1252 88.5732 74.2882 88.1903C74.4593 87.8073 74.6833 87.4896 74.9604 87.237C75.2455 86.9844 75.5673 86.8011 75.9258 86.6871C76.2925 86.5648 76.6672 86.5037 77.0502 86.5037C77.4657 86.5037 77.8445 86.5689 78.1867 86.6993C78.5371 86.8215 78.8345 86.9967 79.0789 87.2248C79.3315 87.4529 79.527 87.7259 79.6655 88.0436C79.804 88.3614 79.8733 88.7076 79.8733 89.0824C79.8733 89.3431 79.804 89.5387 79.6655 89.669C79.527 89.7994 79.3315 89.8849 79.0789 89.9257L75.9014 90.4023ZM77.0624 87.8847C76.7121 87.8847 76.4187 87.9947 76.1825 88.2147C75.9543 88.4265 75.8199 88.7361 75.7792 89.1435L78.1134 88.7647C78.0971 88.5528 78.0034 88.3532 77.8323 88.1658C77.6612 87.9784 77.4046 87.8847 77.0624 87.8847Z" fill="#FF4C00"/>
</g>
<defs>
<linearGradient id="paint0_linear_497_818" x1="50.0411" y1="57.1914" x2="48.8902" y2="87.9452" gradientUnits="userSpaceOnUse">
<stop stop-color="#FF3D00"/>
<stop offset="0.55" stop-color="#FF5C00"/>
<stop offset="1" stop-color="#FC9419"/>
</linearGradient>
<linearGradient id="paint1_linear_497_818" x1="49.6212" y1="64.6812" x2="49.384" y2="78.5746" gradientUnits="userSpaceOnUse">
<stop stop-color="#FF3D00"/>
<stop offset="0.55" stop-color="#FF5C00"/>
<stop offset="1" stop-color="#FC9419"/>
</linearGradient>
<linearGradient id="paint2_linear_497_818" x1="50.4781" y1="16.9878" x2="48.6024" y2="70.6235" gradientUnits="userSpaceOnUse">
<stop stop-color="#FF3D00"/>
<stop offset="0.55" stop-color="#FF5C00"/>
<stop offset="1" stop-color="#FC9419"/>
</linearGradient>
<clipPath id="clip0_497_818">
<rect width="100" height="100" rx="0.5" fill="white"/>
</clipPath>
</defs>
</svg>
