<svg width="308" height="378" viewBox="0 0 308 378" fill="none" xmlns="http://www.w3.org/2000/svg">
<path d="M230.314 348.623C233.589 348.623 236.264 345.971 235.964 342.72C234.423 325.032 225.991 308.349 212.081 295.708C196.629 281.677 175.657 273.785 153.806 273.785C131.956 273.785 110.983 281.677 95.5321 295.708C81.6216 308.349 73.1897 325.032 71.6488 342.72C71.3706 345.971 74.0457 348.623 77.2986 348.623H230.314Z" fill="url(#paint0_linear_674_2269)"/>
<path d="M153.809 377.711C199.325 377.711 236.223 362.59 236.223 343.939C236.223 325.287 199.325 310.167 153.809 310.167C108.293 310.167 71.3945 325.287 71.3945 343.939C71.3945 362.59 108.293 377.711 153.809 377.711Z" fill="url(#paint1_linear_674_2269)"/>
<path d="M154 339.084C239.052 339.084 308 280.642 308 208.551C308 136.459 239.052 78.0178 154 78.0178C68.9481 78.0178 0 136.459 0 208.551C0 280.642 68.9481 339.084 154 339.084Z" fill="url(#paint2_linear_674_2269)"/>
<path fill-rule="evenodd" clip-rule="evenodd" d="M154.052 162.888C140.541 147.604 120.799 137.969 98.8096 137.969C58.0802 137.969 25.0625 171.025 25.0625 211.802C25.0625 235.025 35.7718 255.743 52.5157 269.278C70.2675 289.942 109.024 305.761 153.964 305.761C199.286 305.761 238.32 289.66 255.861 268.74C272.165 255.198 282.555 234.719 282.555 211.802C282.555 171.025 249.662 137.969 209.086 137.969C187.18 137.969 167.512 147.604 154.052 162.888Z" fill="white"/>
<path d="M76.1899 220.699C73.7288 220.25 72.0381 217.854 73.0012 215.545C74.2638 212.55 76.1899 209.877 78.6938 207.738C82.3533 204.615 86.9759 202.84 91.7697 202.712C96.5848 202.583 101.293 204.123 105.102 207.053C107.713 209.064 109.789 211.63 111.202 214.539C112.293 216.806 110.731 219.287 108.291 219.865C105.851 220.442 103.454 218.838 101.999 216.806C101.314 215.844 100.501 214.988 99.5595 214.261C97.3981 212.593 94.7444 211.737 92.0265 211.802C89.3086 211.866 86.6977 212.871 84.6218 214.646C83.723 215.416 82.9311 216.314 82.3105 217.32C80.9623 219.437 78.6724 221.17 76.1899 220.72V220.699Z" fill="#FF4D00"/>
<path d="M203.112 220.699C200.651 220.25 198.96 217.854 199.923 215.545C201.186 212.55 203.112 209.877 205.616 207.738C209.275 204.615 213.898 202.84 218.692 202.712C223.507 202.583 228.215 204.123 232.024 207.053C234.635 209.064 236.711 211.63 238.102 214.539C239.193 216.806 237.631 219.287 235.192 219.865C232.752 220.442 230.355 218.838 228.9 216.806C228.215 215.844 227.402 214.988 226.46 214.261C224.299 212.593 221.645 211.737 218.927 211.802C216.209 211.866 213.598 212.871 211.522 214.646C210.623 215.416 209.832 216.314 209.211 217.32C207.863 219.437 205.573 221.17 203.09 220.72L203.112 220.699Z" fill="#FF4D00"/>
<path d="M155.286 241.66C154.687 242.879 152.975 242.879 152.376 241.66L147.646 231.928C147.132 230.859 147.903 229.618 149.101 229.618H158.561C159.759 229.618 160.529 230.859 160.016 231.928L155.286 241.66Z" fill="#FF5C00"/>
<path d="M156.559 1.66183C155.533 -0.554742 152.365 -0.553711 151.34 1.66353L139.098 28.1509C138.748 28.9082 138.748 29.7798 139.098 30.5371L151.34 57.0245C152.365 59.2417 155.533 59.2427 156.559 57.0262L168.822 30.5388C169.173 29.7805 169.173 28.9075 168.822 28.1492L156.559 1.66183Z" fill="#FF4C00"/>
<defs>
<linearGradient id="paint0_linear_674_2269" x1="156.417" y1="273.7" x2="150.817" y2="423.354" gradientUnits="userSpaceOnUse">
<stop stop-color="#FF3D00"/>
<stop offset="0.55" stop-color="#FF5C00"/>
<stop offset="1" stop-color="#FC9419"/>
</linearGradient>
<linearGradient id="paint1_linear_674_2269" x1="154.387" y1="310.145" x2="153.232" y2="377.754" gradientUnits="userSpaceOnUse">
<stop stop-color="#FF3D00"/>
<stop offset="0.55" stop-color="#FF5C00"/>
<stop offset="1" stop-color="#FC9419"/>
</linearGradient>
<linearGradient id="paint2_linear_674_2269" x1="158.558" y1="78.0606" x2="149.431" y2="339.063" gradientUnits="userSpaceOnUse">
<stop stop-color="#FF3D00"/>
<stop offset="0.55" stop-color="#FF5C00"/>
<stop offset="1" stop-color="#FC9419"/>
</linearGradient>
</defs>
</svg>
