<svg width="28" height="28" viewBox="0 0 28 28" fill="none" xmlns="http://www.w3.org/2000/svg">
<path d="M26.3039 24.8219L20.0416 18.5596C21.7482 16.4725 22.5872 13.8092 22.3852 11.1208C22.1832 8.43232 20.9557 5.92435 18.9564 4.11563C16.9571 2.3069 14.3391 1.3358 11.644 1.40319C8.94877 1.47058 6.38259 2.5713 4.47621 4.47768C2.56983 6.38405 1.46911 8.95023 1.40172 11.6454C1.33434 14.3406 2.30544 16.9586 4.11416 18.9578C5.92289 20.9571 8.43085 22.1847 11.1193 22.3867C13.8077 22.5887 16.471 21.7496 18.5581 20.0431L24.8205 26.3054C25.0183 26.4965 25.2833 26.6023 25.5584 26.5999C25.8335 26.5975 26.0966 26.4871 26.2912 26.2926C26.4857 26.0981 26.596 25.835 26.5984 25.5599C26.6008 25.2848 26.495 25.0198 26.3039 24.8219ZM11.9234 20.318C10.2634 20.318 8.64068 19.8257 7.26044 18.9035C5.8802 17.9812 4.80444 16.6704 4.16918 15.1368C3.53393 13.6031 3.36772 11.9156 3.69157 10.2874C4.01542 8.65935 4.81478 7.16384 5.98858 5.99004C7.16237 4.81625 8.65788 4.01688 10.286 3.69303C11.9141 3.36918 13.6017 3.53539 15.1353 4.17065C16.6689 4.8059 17.9798 5.88167 18.902 7.2619C19.8243 8.64214 20.3165 10.2649 20.3165 11.9249C20.314 14.1501 19.4289 16.2835 17.8555 17.8569C16.282 19.4304 14.1486 20.3155 11.9234 20.318Z" fill="#BDBDBD"/>
</svg>
