<svg width="24" height="24" viewBox="0 0 24 24" fill="none" xmlns="http://www.w3.org/2000/svg">
<path d="M11.9992 1.19995C17.9653 1.19995 22.7992 6.03382 22.7992 12C22.7992 17.9661 17.9653 22.7999 11.9992 22.7999C6.03309 22.7999 1.19922 17.9661 1.19922 12C1.19922 6.03382 6.03309 1.19995 11.9992 1.19995ZM17.2686 8.60318C17.4428 7.9064 17.0073 7.60156 16.5282 7.77576L6.12019 11.7822C5.42341 12.0435 5.42341 12.479 5.98954 12.6532L8.64599 13.4806L14.8299 9.56124C15.1347 9.38705 15.396 9.51769 15.1783 9.69189L10.1702 14.2209L9.99599 16.9645C10.2573 16.9645 10.3879 16.8338 10.5186 16.7032L11.825 15.4403L14.525 17.4435C15.0476 17.7048 15.396 17.5741 15.5266 16.9645L17.2686 8.60318Z" fill="white"/>
</svg>
