<svg width="25" height="25" viewBox="0 0 25 25" fill="none" xmlns="http://www.w3.org/2000/svg">
<path d="M21.3462 3.66C18.9888 1.30125 15.8537 0.00125 12.5138 0C5.63125 0 0.0300001 5.59875 0.0275001 12.4812C0.0262501 14.6812 0.60125 16.8287 1.69375 18.7212L0 25L6.54125 23.4538C8.365 24.4488 10.4175 24.9725 12.5075 24.9738H12.5125C19.3938 24.9738 24.995 19.3738 24.9988 12.4925C25.0013 9.15625 23.7037 6.02 21.3462 3.66ZM18.6225 16.9425C18.3625 17.6712 17.0888 18.3737 16.5163 18.425C15.9438 18.4775 15.4075 18.6837 12.7725 17.645C9.60125 16.395 7.59875 13.1438 7.44375 12.9362C7.2875 12.7275 6.17 11.245 6.17 9.71C6.17 8.175 6.97625 7.42 7.2625 7.10875C7.54875 6.79625 7.88625 6.71875 8.095 6.71875C8.3025 6.71875 8.51125 6.71875 8.6925 6.72625C8.915 6.735 9.16125 6.74625 9.395 7.265C9.6725 7.8825 10.2787 9.425 10.3562 9.58125C10.4338 9.7375 10.4862 9.92 10.3825 10.1275C10.2787 10.335 10.2263 10.465 10.0712 10.6475C9.915 10.83 9.74375 11.0538 9.60375 11.1938C9.4475 11.3488 9.285 11.5187 9.46625 11.83C9.64875 12.1425 10.2738 13.1638 11.2013 13.99C12.3938 15.0525 13.3975 15.3812 13.71 15.5387C14.0225 15.695 14.2037 15.6687 14.3862 15.46C14.5687 15.2525 15.1662 14.55 15.3737 14.2375C15.5813 13.925 15.79 13.9775 16.0763 14.0813C16.3625 14.185 17.8962 14.94 18.2075 15.0962C18.52 15.2525 18.7275 15.33 18.805 15.46C18.8825 15.5887 18.8825 16.2137 18.6225 16.9425Z" fill="#F3F3F3"/>
</svg>
